<?xml version="1.0" encoding="UTF-8"?>
<svg id="Layer_1" data-name="Layer 1" xmlns="http://www.w3.org/2000/svg" viewBox="0 0 480.48 397.39">
  <defs>
    <style>
      .cls-1 {
        fill: #fff;
      }

      .cls-2 {
        fill: #1f3556;
      }
    </style>
  </defs>
  <path class="cls-1" d="M167.75,48.72c-1.15-2.58-3.62-3.54-4.68-.4,2.48-2.67,4.1-.37,4.78,2.34l.5,4.58c-.05-2.24.34-4.41-.6-6.52Z"/>
  <path class="cls-2" d="M157.56,62.98c-.13-1.01-.87-1.59-1.24-2.63-2.41-6.89-1.37-14.14,3.28-19.77h-10.38c-1.15,0-3.99,2.48-5.29,2.85-.79-.7,2.49-3.45.08-2.78-2.13.6-4.34,2.35-5.78,3.99-.22-1.64,1.97-2.79,2.65-4.07-10.84.42-11.91,23.52-.2,22.39,1.79-.17,3.43-1.45,5.26-1.22,1.66.21,4.43,3.11,6.55,3.26l-3.05-4.89c2.01,2.01,4.27,4.44,7.33,4.47-1.51-1.83-3.52-3.49-3.66-6.1l2.63,3.27,1.84,1.21Z"/>
  <path class="cls-1" d="M162.77,27.64c1.36.78,2.75,1.38,4.36,1.13.32-1.53-3.04-3.76-4-3.19l-.82,1.43c-.25.77.13.44.46.64Z"/>
  <path class="cls-2" d="M146.6,34.68l-.44-6.31c.56.19.89,1.87,1.03,2.43.56,2.41.69,4.88.6,7.34,3.06.41,4.28-2.47,5.91-4.48l-1.02,4.48c2.24-.52,4.35-.58,6.12-2.22.68-.63,1.08-1.56,1.81-2.27.57-.55,4.08-2.98,3.47-3.65-3.53-.35-6.09-3.37-9.09-4.96-3.64-1.93-9.24-3.78-12.85-1.3.21,4.77,2.37,9.4,3.62,13.99l.84-3.05Z"/>
  <path class="cls-1" d="M169.86,44.37c-1.55-2.49-4.05-4.32-7.11-3.69-4.89,1-6.72,9.33-6.4,13.54.41,5.29,4.25,14.25,10.79,9.99,5.54-3.61,5.99-14.6,2.72-19.83ZM164.24,60.93c-5.92.21-6.33-15.11-.67-16.21,3.14-.61,5.13,4.13,5.4,6.66.33,3.05-.79,9.42-4.73,9.56Z"/>
  <path class="cls-1" d="M167.07,39.83c-.39-.19-2.16-.88-2.38-.88h-6.31c.62-4.88,13.24-8.05,7.53-13.43-2.36-2.23-4.57-2.21-6.1.79-5.14-3.7-11.34-6.36-17.75-4.69-.73.19-1.71.55-1.95,1.33l4.42,16c-13.45-2.13-17.42,16.27-9.99,24.45.8.88,2.42,1.3,2.67,2.63,0,.37-8.35.93-4.07,2.85,2.04.92,10.13,1.34,12.8,1.45,8.73.36,18.3.23,26.69-2.06.17-.92-.05-.65-.52-.9-1.23-.68-3.36-.98-4.78-1.13l3.84-4.51c3.93-5.79,2.55-18.68-4.1-21.89ZM161.29,27l.82-1.43c.96-.56,4.32,1.67,4,3.19-1.62.25-3.01-.35-4.36-1.13-.33-.19-.72.13-.46-.64ZM142.14,23.74c3.61-2.49,9.2-.63,12.85,1.3,3.01,1.59,5.56,4.61,9.09,4.96.6.67-2.91,3.1-3.47,3.65-.72.71-1.12,1.63-1.81,2.27-1.76,1.64-3.88,1.7-6.12,2.22l1.02-4.48c-1.62,2.01-2.85,4.89-5.91,4.48.09-2.47-.04-4.94-.6-7.34-.13-.56-.47-2.23-1.03-2.43l.44,6.31-.84,3.05c-1.25-4.59-3.41-9.21-3.62-13.99ZM156.75,64.6c-3.06-.03-5.32-2.47-7.33-4.47l3.05,4.89c-2.12-.14-4.88-3.04-6.55-3.26-1.82-.24-3.47,1.04-5.26,1.22-11.71,1.13-10.64-21.97.2-22.39-.68,1.28-2.87,2.42-2.65,4.07,1.45-1.64,3.65-3.39,5.78-3.99,2.42-.68-.87,2.07-.08,2.78,1.3-.37,4.14-2.85,5.29-2.85h10.38c-4.64,5.63-5.69,12.88-3.28,19.77.36,1.04,1.1,1.62,1.24,2.63l-1.84-1.21-2.63-3.27c.15,2.61,2.15,4.27,3.66,6.1ZM167.14,64.21c-6.54,4.26-10.38-4.7-10.79-9.99-.33-4.21,1.51-12.54,6.4-13.54,3.06-.63,5.56,1.2,7.11,3.69,3.27,5.24,2.82,16.22-2.72,19.83Z"/>
  <path class="cls-2" d="M163.57,44.72c-5.66,1.1-5.25,16.42.67,16.21,3.94-.14,5.06-6.5,4.73-9.56-.27-2.52-2.26-7.26-5.4-6.66ZM167.33,55.24l-.5-4.58c-.68-2.71-2.3-5-4.78-2.34,1.06-3.13,3.53-2.17,4.68.4.94,2.11.55,4.28.6,6.52Z"/>
  <g>
    <path class="cls-1" d="M36.29,339.19c1.99.46,3.39,1.03,4.2,1.69,1.16.94,1.73,2.16,1.73,3.66,0,1.58-.64,2.89-1.91,3.92-1.56,1.25-3.83,1.87-6.8,1.87h-10.67v-.57c.97,0,1.63-.09,1.97-.27.35-.18.59-.42.73-.7.14-.29.21-1,.21-2.14v-13.63c0-1.14-.07-1.85-.21-2.15-.14-.29-.38-.53-.74-.71-.35-.18-1.01-.26-1.97-.26v-.57h10.07c2.41,0,4.11.21,5.11.64,1,.43,1.79,1.07,2.37,1.92.58.85.87,1.76.87,2.72,0,1.01-.37,1.91-1.1,2.7-.73.79-2.02,1.42-3.87,1.88ZM30.65,339.98v6.74l-.02.77c0,.56.14.98.43,1.26.28.28.7.43,1.26.43.83,0,1.59-.18,2.28-.55s1.23-.9,1.6-1.6.56-1.47.56-2.33c0-.98-.23-1.86-.68-2.64-.45-.78-1.08-1.32-1.87-1.63s-1.98-.46-3.56-.45ZM30.65,338.77c1.47,0,2.55-.17,3.25-.5s1.23-.79,1.6-1.39c.37-.6.56-1.36.56-2.29s-.18-1.69-.55-2.28c-.37-.59-.89-1.05-1.57-1.36-.68-.31-1.78-.46-3.28-.45v8.27Z"/>
    <path class="cls-1" d="M61.78,342.57h-7.95c.09,1.92.6,3.44,1.53,4.55.71.86,1.57,1.29,2.57,1.29.62,0,1.18-.17,1.69-.52.51-.35,1.05-.97,1.63-1.87l.53.34c-.78,1.6-1.65,2.73-2.6,3.4-.95.67-2.05,1-3.3,1-2.15,0-3.77-.83-4.88-2.48-.89-1.33-1.33-2.98-1.33-4.96,0-2.42.65-4.34,1.96-5.77,1.31-1.43,2.84-2.15,4.59-2.15,1.47,0,2.74.6,3.82,1.8,1.08,1.2,1.66,2.99,1.74,5.35ZM57.97,341.53c0-1.66-.09-2.8-.27-3.42-.18-.62-.46-1.09-.84-1.41-.22-.19-.51-.28-.87-.28-.54,0-.98.26-1.32.79-.61.92-.91,2.18-.91,3.78v.54h4.21Z"/>
    <path class="cls-1" d="M80.52,346.6l.48.37c-.68,1.28-1.53,2.23-2.55,2.86-1.02.62-2.1.94-3.25.94-1.93,0-3.48-.73-4.63-2.18-1.16-1.46-1.73-3.21-1.73-5.25s.53-3.71,1.58-5.2c1.27-1.81,3.02-2.71,5.25-2.71,1.5,0,2.69.38,3.57,1.13.88.75,1.32,1.6,1.32,2.53,0,.59-.18,1.06-.53,1.41s-.82.53-1.4.53c-.61,0-1.11-.2-1.51-.6-.4-.4-.64-1.12-.74-2.15-.06-.65-.21-1.11-.45-1.36-.24-.26-.52-.39-.84-.39-.5,0-.92.26-1.27.79-.54.79-.81,2.01-.81,3.66,0,1.36.22,2.67.65,3.91s1.03,2.17,1.78,2.78c.57.44,1.24.67,2.01.67.51,0,.99-.12,1.44-.36.45-.24.99-.69,1.61-1.35Z"/>
    <path class="cls-1" d="M95.88,348.19c-1.77,1.56-3.35,2.34-4.76,2.34-.83,0-1.51-.27-2.06-.81-.55-.54-.82-1.22-.82-2.04,0-1.1.47-2.1,1.43-2.98.95-.88,3.02-2.06,6.21-3.52v-1.46c0-1.09-.06-1.78-.18-2.07-.12-.28-.34-.53-.67-.74-.33-.21-.7-.32-1.12-.32-.67,0-1.22.15-1.66.45-.27.19-.4.4-.4.65,0,.22.14.49.43.81.39.44.59.87.59,1.29,0,.51-.19.94-.57,1.29-.38.36-.87.53-1.48.53-.65,0-1.2-.2-1.63-.59-.44-.39-.66-.85-.66-1.38,0-.74.29-1.45.88-2.13.59-.68,1.41-1.19,2.46-1.56s2.15-.54,3.28-.54c1.37,0,2.46.29,3.26.88.8.58,1.32,1.22,1.56,1.9.14.43.22,1.43.22,2.99v5.62c0,.66.03,1.08.08,1.25.05.17.13.3.23.38.1.08.22.12.36.12.27,0,.54-.19.82-.57l.46.37c-.52.76-1.05,1.32-1.6,1.67-.55.35-1.18.52-1.88.52-.83,0-1.47-.19-1.94-.58s-.75-.97-.85-1.76ZM95.88,347.06v-4.85c-1.25.73-2.18,1.52-2.79,2.35-.4.56-.6,1.12-.6,1.69,0,.48.17.89.51,1.25.26.28.62.42,1.08.42.52,0,1.12-.29,1.8-.87Z"/>
    <path class="cls-1" d="M122.85,335.85v11.34c0,1.11.1,1.79.31,2.07.21.27.62.45,1.25.52v.56h-5.9v-1.94c-.69.83-1.38,1.43-2.08,1.8-.69.38-1.47.57-2.32.57s-1.54-.25-2.18-.75-1.06-1.09-1.28-1.76c-.22-.67-.33-1.84-.33-3.52v-5.75c0-1.09-.1-1.78-.3-2.04-.2-.27-.62-.44-1.26-.53v-.57h5.9v9.9c0,1.03.05,1.7.15,2,.1.3.25.53.46.68.21.16.46.23.74.23.37,0,.71-.1,1.01-.29.41-.27.91-.81,1.49-1.63v-7.75c0-1.09-.1-1.78-.3-2.04-.2-.27-.62-.44-1.26-.53v-.57h5.9Z"/>
    <path class="cls-1" d="M140.77,335.44l.23,4.94h-.53c-.63-1.47-1.28-2.47-1.96-3-.68-.54-1.35-.81-2.02-.81-.42,0-.78.14-1.08.43-.3.28-.45.61-.45.98,0,.28.1.55.31.81.33.42,1.25,1.15,2.77,2.18,1.52,1.03,2.52,1.9,3,2.62.48.72.72,1.52.72,2.41,0,.81-.2,1.6-.6,2.37s-.97,1.37-1.7,1.78-1.54.62-2.43.62c-.69,0-1.62-.22-2.77-.65-.31-.11-.52-.17-.63-.17-.34,0-.62.26-.85.77h-.51l-.25-5.21h.53c.46,1.36,1.1,2.39,1.91,3.07.81.68,1.58,1.02,2.3,1.02.5,0,.9-.15,1.22-.46.31-.3.47-.67.47-1.11,0-.5-.15-.92-.46-1.29s-1-.91-2.08-1.64c-1.58-1.09-2.6-1.93-3.07-2.51-.68-.85-1.02-1.78-1.02-2.8,0-1.12.38-2.12,1.15-3.03.77-.9,1.88-1.36,3.34-1.36.78,0,1.54.19,2.28.57.28.15.51.23.68.23.19,0,.34-.04.45-.12.11-.08.29-.3.54-.66h.53Z"/>
    <path class="cls-1" d="M161.33,342.57h-7.95c.09,1.92.6,3.44,1.53,4.55.71.86,1.57,1.29,2.57,1.29.62,0,1.18-.17,1.69-.52.51-.35,1.05-.97,1.63-1.87l.53.34c-.78,1.6-1.65,2.73-2.6,3.4-.95.67-2.05,1-3.3,1-2.15,0-3.77-.83-4.88-2.48-.89-1.33-1.33-2.98-1.33-4.96,0-2.42.65-4.34,1.96-5.77,1.31-1.43,2.84-2.15,4.59-2.15,1.47,0,2.74.6,3.82,1.8,1.08,1.2,1.66,2.99,1.74,5.35ZM157.52,341.53c0-1.66-.09-2.8-.27-3.42-.18-.62-.46-1.09-.84-1.41-.22-.19-.51-.28-.87-.28-.54,0-.98.26-1.32.79-.61.92-.91,2.18-.91,3.78v.54h4.21Z"/>
    <path class="cls-1" d="M187.94,350.92l-4.68-10.73c-.7-1.62-1.22-2.62-1.56-2.99-.34-.37-.74-.63-1.22-.77v-.57h7.7v.57c-.51.02-.86.12-1.07.29-.21.18-.31.39-.31.64,0,.39.26,1.17.77,2.32l2.48,5.67,1.69-4.38c.61-1.56.91-2.64.91-3.25,0-.38-.13-.69-.38-.91-.25-.23-.7-.35-1.34-.37v-.57h4.85v.57c-.48.05-.86.24-1.16.55-.3.32-.8,1.39-1.5,3.21l-4.14,10.73c-1.04,2.68-1.82,4.34-2.32,4.96-.71.87-1.61,1.3-2.68,1.3-.86,0-1.55-.25-2.08-.74-.53-.49-.8-1.08-.8-1.77,0-.6.18-1.09.55-1.49.37-.39.82-.59,1.36-.59s.93.17,1.25.5.48.84.49,1.53c.01.39.06.65.14.76.08.11.2.17.36.17.25,0,.51-.15.79-.45.41-.43.9-1.43,1.46-2.97l.45-1.21Z"/>
    <path class="cls-1" d="M209.09,335.41c1.26,0,2.43.33,3.52.98s1.91,1.57,2.47,2.77c.56,1.2.84,2.51.84,3.93,0,2.05-.52,3.77-1.56,5.16-1.26,1.67-3,2.51-5.22,2.51s-3.86-.76-5.03-2.29c-1.18-1.53-1.77-3.3-1.77-5.31s.6-3.89,1.8-5.43c1.2-1.54,2.85-2.32,4.95-2.32ZM209.15,336.51c-.53,0-.98.2-1.36.6-.38.4-.62,1.18-.74,2.35-.12,1.17-.18,2.8-.18,4.89,0,1.11.07,2.14.22,3.1.11.73.36,1.29.73,1.67.37.38.79.57,1.27.57s.85-.13,1.16-.39c.4-.35.67-.84.81-1.47.21-.98.31-2.96.31-5.95,0-1.76-.1-2.96-.29-3.62-.2-.66-.49-1.13-.87-1.43-.27-.22-.62-.33-1.05-.33Z"/>
    <path class="cls-1" d="M237.22,335.85v11.34c0,1.11.1,1.79.31,2.07.21.27.62.45,1.25.52v.56h-5.9v-1.94c-.69.83-1.38,1.43-2.08,1.8-.69.38-1.47.57-2.32.57s-1.54-.25-2.18-.75-1.06-1.09-1.28-1.76c-.22-.67-.33-1.84-.33-3.52v-5.75c0-1.09-.1-1.78-.3-2.04-.2-.27-.62-.44-1.26-.53v-.57h5.9v9.9c0,1.03.05,1.7.15,2,.1.3.25.53.46.68.21.16.46.23.74.23.37,0,.71-.1,1.01-.29.41-.27.91-.81,1.49-1.63v-7.75c0-1.09-.1-1.78-.3-2.04-.2-.27-.62-.44-1.26-.53v-.57h5.9Z"/>
    <path class="cls-1" d="M251.99,335.85v3.28c.96-1.5,1.8-2.49,2.52-2.98.72-.49,1.42-.74,2.09-.74.58,0,1.04.18,1.39.53.35.36.52.86.52,1.51,0,.69-.17,1.23-.5,1.61s-.74.57-1.22.57c-.55,0-1.02-.18-1.43-.53s-.64-.55-.71-.59c-.1-.06-.22-.09-.36-.09-.3,0-.58.11-.85.34-.42.35-.74.85-.96,1.5-.33,1-.5,2.11-.5,3.31v3.33l.02.87c0,.59.04.97.11,1.13.12.28.31.48.55.61.24.13.65.21,1.23.24v.56h-7.82v-.56c.63-.05,1.06-.22,1.28-.52.22-.29.33-1.07.33-2.33v-8.01c0-.83-.04-1.35-.12-1.58-.1-.29-.25-.5-.45-.64-.2-.13-.54-.23-1.04-.28v-.57h5.92Z"/>
    <path class="cls-1" d="M283.24,329.32v7.98c1.22-1.26,2.55-1.89,4-1.89.99,0,1.93.29,2.8.88.88.58,1.56,1.41,2.06,2.49s.74,2.31.74,3.72c0,1.58-.32,3.02-.94,4.31s-1.47,2.27-2.52,2.95c-1.05.68-2.26,1.01-3.61,1.01-.78,0-1.48-.12-2.09-.37-.61-.25-1.21-.65-1.8-1.21l-2.4,1.56h-.53v-18.42c0-.84-.04-1.35-.11-1.55-.1-.29-.27-.5-.49-.64-.22-.14-.6-.22-1.12-.24v-.57h6.01ZM283.24,338.68v6.44c0,1.31.03,2.15.09,2.51.1.61.35,1.1.74,1.48s.89.57,1.5.57c.53,0,.98-.15,1.36-.45.38-.3.69-.89.94-1.78.25-.89.38-2.49.38-4.8s-.28-3.74-.84-4.57c-.4-.6-.94-.9-1.63-.9-.89,0-1.74.5-2.56,1.5Z"/>
    <path class="cls-1" d="M307.22,335.41c1.26,0,2.43.33,3.52.98s1.91,1.57,2.47,2.77c.56,1.2.84,2.51.84,3.93,0,2.05-.52,3.77-1.56,5.16-1.26,1.67-3,2.51-5.22,2.51s-3.86-.76-5.03-2.29c-1.18-1.53-1.77-3.3-1.77-5.31s.6-3.89,1.8-5.43c1.2-1.54,2.85-2.32,4.95-2.32ZM307.28,336.51c-.53,0-.98.2-1.36.6-.38.4-.62,1.18-.74,2.35-.12,1.17-.18,2.8-.18,4.89,0,1.11.07,2.14.22,3.1.11.73.36,1.29.73,1.67.37.38.79.57,1.27.57s.85-.13,1.16-.39c.4-.35.67-.84.81-1.47.21-.98.31-2.96.31-5.95,0-1.76-.1-2.96-.29-3.62-.2-.66-.49-1.13-.87-1.43-.27-.22-.62-.33-1.05-.33Z"/>
    <path class="cls-1" d="M327.1,330.55v5.3h3.44v1.53h-3.44v8.94c0,.84.04,1.38.12,1.62.08.24.21.44.41.59.2.15.38.22.54.22.67,0,1.31-.51,1.91-1.53l.46.34c-.84,1.98-2.19,2.97-4.07,2.97-.92,0-1.7-.26-2.33-.77-.64-.51-1.04-1.08-1.22-1.71-.1-.35-.15-1.3-.15-2.85v-7.82h-1.89v-.54c1.3-.92,2.41-1.88,3.32-2.9.91-1.01,1.71-2.14,2.39-3.39h.51Z"/>
    <path class="cls-1" d="M342.77,330.55v5.3h3.44v1.53h-3.44v8.94c0,.84.04,1.38.12,1.62.08.24.21.44.41.59.2.15.38.22.54.22.67,0,1.31-.51,1.91-1.53l.46.34c-.84,1.98-2.19,2.97-4.07,2.97-.92,0-1.7-.26-2.33-.77-.64-.51-1.04-1.08-1.22-1.71-.1-.35-.15-1.3-.15-2.85v-7.82h-1.89v-.54c1.3-.92,2.41-1.88,3.32-2.9.91-1.01,1.71-2.14,2.39-3.39h.51Z"/>
    <path class="cls-1" d="M359.53,335.41c1.26,0,2.43.33,3.52.98s1.91,1.57,2.47,2.77c.56,1.2.84,2.51.84,3.93,0,2.05-.52,3.77-1.56,5.16-1.26,1.67-3,2.51-5.22,2.51s-3.86-.76-5.03-2.29c-1.18-1.53-1.77-3.3-1.77-5.31s.6-3.89,1.8-5.43c1.2-1.54,2.85-2.32,4.95-2.32ZM359.59,336.51c-.53,0-.98.2-1.36.6-.38.4-.62,1.18-.74,2.35-.12,1.17-.18,2.8-.18,4.89,0,1.11.07,2.14.22,3.1.11.73.36,1.29.73,1.67.37.38.79.57,1.27.57s.85-.13,1.16-.39c.4-.35.67-.84.81-1.47.21-.98.31-2.96.31-5.95,0-1.76-.1-2.96-.29-3.62-.2-.66-.49-1.13-.87-1.43-.27-.22-.62-.33-1.05-.33Z"/>
    <path class="cls-1" d="M379.68,335.85v1.91c.8-.87,1.53-1.47,2.21-1.82s1.42-.52,2.22-.52c.93,0,1.71.22,2.34.65.63.43,1.12,1.09,1.46,1.98.83-.93,1.62-1.6,2.38-2.01s1.55-.62,2.38-.62c1,0,1.8.23,2.39.69.59.46,1.01,1.04,1.24,1.75.23.71.35,1.84.35,3.38v5.93c0,1.12.1,1.81.3,2.08.2.27.62.44,1.26.53v.56h-7.48v-.56c.59-.05,1.02-.28,1.3-.68.19-.28.28-.92.28-1.92v-6.23c0-1.29-.05-2.11-.16-2.46-.1-.35-.27-.61-.49-.78-.22-.17-.48-.26-.78-.26-.44,0-.89.16-1.35.49-.45.33-.91.81-1.38,1.46v7.78c0,1.04.09,1.7.26,1.97.24.38.69.59,1.36.64v.56h-7.5v-.56c.4-.02.72-.12.95-.3.23-.18.39-.4.46-.65.08-.25.12-.8.12-1.65v-6.23c0-1.31-.05-2.13-.16-2.46-.1-.33-.28-.59-.52-.77-.24-.19-.5-.28-.78-.28-.41,0-.79.11-1.13.33-.49.32-1,.87-1.55,1.64v7.78c0,1.02.1,1.7.3,2.02.2.33.62.52,1.26.58v.56h-7.47v-.56c.61-.06,1.04-.26,1.3-.59.18-.23.26-.9.26-2.01v-8.18c0-1.09-.1-1.78-.3-2.04-.2-.27-.62-.44-1.26-.53v-.57h5.9Z"/>
    <path class="cls-1" d="M83.2,367.39v16.67c0,1.13.03,1.79.09,2,.08.34.24.59.47.76.23.17.64.27,1.22.31v.51l-6.12,1.19v-2.29c-.73.89-1.39,1.49-1.96,1.81s-1.22.48-1.94.48c-1.85,0-3.31-.83-4.38-2.48-.87-1.34-1.3-2.99-1.3-4.94,0-1.56.27-2.96.81-4.19.54-1.23,1.27-2.17,2.21-2.8.93-.63,1.94-.94,3.01-.94.69,0,1.31.13,1.84.4.54.27,1.11.74,1.72,1.41v-4.37c0-1.11-.05-1.77-.14-2-.12-.3-.31-.52-.56-.67-.25-.14-.71-.22-1.39-.22v-.65h6.43ZM78.87,377.21c-.76-1.47-1.7-2.2-2.8-2.2-.38,0-.7.1-.94.31-.38.32-.69.88-.94,1.69s-.36,2.04-.36,3.7c0,1.83.13,3.18.4,4.06s.64,1.51,1.1,1.91c.24.2.56.29.98.29.91,0,1.77-.71,2.57-2.14v-7.62Z"/>
    <path class="cls-1" d="M104.14,380.64h-7.95c.09,1.92.6,3.44,1.53,4.55.71.86,1.57,1.29,2.57,1.29.62,0,1.18-.17,1.69-.52.51-.35,1.05-.97,1.63-1.87l.53.34c-.78,1.6-1.65,2.73-2.6,3.4-.95.67-2.05,1-3.3,1-2.15,0-3.77-.83-4.88-2.48-.89-1.33-1.33-2.98-1.33-4.96,0-2.42.65-4.34,1.96-5.77,1.31-1.43,2.84-2.15,4.59-2.15,1.47,0,2.74.6,3.82,1.8,1.08,1.2,1.66,2.99,1.74,5.35ZM100.33,379.6c0-1.66-.09-2.8-.27-3.42-.18-.62-.46-1.09-.84-1.41-.22-.19-.51-.28-.87-.28-.54,0-.98.26-1.32.79-.61.92-.91,2.18-.91,3.78v.54h4.21Z"/>
    <path class="cls-1" d="M120.22,373.51l.23,4.94h-.53c-.63-1.47-1.28-2.47-1.96-3-.68-.54-1.35-.81-2.02-.81-.42,0-.78.14-1.08.43-.3.28-.45.61-.45.98,0,.28.1.55.31.81.33.42,1.25,1.15,2.77,2.18,1.52,1.03,2.52,1.9,3,2.62.48.72.72,1.52.72,2.41,0,.81-.2,1.6-.6,2.37s-.97,1.37-1.7,1.78-1.54.62-2.43.62c-.69,0-1.62-.22-2.77-.65-.31-.11-.52-.17-.63-.17-.34,0-.62.26-.85.77h-.51l-.25-5.21h.53c.46,1.36,1.1,2.39,1.91,3.07.81.68,1.58,1.02,2.3,1.02.5,0,.9-.15,1.22-.46.31-.3.47-.67.47-1.11,0-.5-.15-.92-.46-1.29s-1-.91-2.08-1.64c-1.58-1.09-2.6-1.93-3.07-2.51-.68-.85-1.02-1.78-1.02-2.8,0-1.12.38-2.12,1.15-3.03.77-.9,1.88-1.36,3.34-1.36.78,0,1.54.19,2.28.57.28.15.51.23.68.23.19,0,.34-.04.45-.12.11-.08.29-.3.54-.66h.53Z"/>
    <path class="cls-1" d="M140.78,380.64h-7.95c.09,1.92.6,3.44,1.53,4.55.71.86,1.57,1.29,2.57,1.29.62,0,1.18-.17,1.69-.52.51-.35,1.05-.97,1.63-1.87l.53.34c-.78,1.6-1.65,2.73-2.6,3.4-.95.67-2.05,1-3.3,1-2.15,0-3.77-.83-4.88-2.48-.89-1.33-1.33-2.98-1.33-4.96,0-2.42.65-4.34,1.96-5.77,1.31-1.43,2.84-2.15,4.59-2.15,1.47,0,2.74.6,3.82,1.8,1.08,1.2,1.66,2.99,1.74,5.35ZM136.97,379.6c0-1.66-.09-2.8-.27-3.42-.18-.62-.46-1.09-.84-1.41-.22-.19-.51-.28-.87-.28-.54,0-.98.26-1.32.79-.61.92-.91,2.18-.91,3.78v.54h4.21Z"/>
    <path class="cls-1" d="M153.71,373.91v3.28c.96-1.5,1.8-2.49,2.52-2.98.72-.49,1.42-.74,2.09-.74.58,0,1.04.18,1.39.53.35.36.52.86.52,1.51,0,.69-.17,1.23-.5,1.61s-.74.57-1.22.57c-.55,0-1.02-.18-1.43-.53s-.64-.55-.71-.59c-.1-.06-.22-.09-.36-.09-.3,0-.58.11-.85.34-.42.35-.74.85-.96,1.5-.33,1-.5,2.11-.5,3.31v3.33l.02.87c0,.59.04.97.11,1.13.12.28.31.48.55.61.24.13.65.21,1.23.24v.56h-7.82v-.56c.63-.05,1.06-.22,1.28-.52.22-.29.33-1.07.33-2.33v-8.01c0-.83-.04-1.35-.12-1.58-.1-.29-.25-.5-.45-.64-.2-.13-.54-.23-1.04-.28v-.57h5.92Z"/>
    <path class="cls-1" d="M173.43,388.83l-4.88-11.23c-.59-1.35-1.05-2.21-1.38-2.57-.24-.27-.59-.45-1.05-.54v-.57h7.7v.57c-.49,0-.82.09-.99.26-.25.23-.37.5-.37.81,0,.38.23,1.1.68,2.15l2.39,5.44,1.91-4.69c.55-1.34.82-2.29.82-2.85,0-.32-.12-.58-.35-.78-.23-.2-.64-.31-1.23-.33v-.57h4.74v.57c-.45.06-.83.23-1.12.51s-.72,1.1-1.3,2.46l-4.83,11.37h-.73Z"/>
    <path class="cls-1" d="M200.13,380.64h-7.95c.09,1.92.6,3.44,1.53,4.55.71.86,1.57,1.29,2.57,1.29.62,0,1.18-.17,1.69-.52.51-.35,1.05-.97,1.63-1.87l.53.34c-.78,1.6-1.65,2.73-2.6,3.4-.95.67-2.05,1-3.3,1-2.15,0-3.77-.83-4.88-2.48-.89-1.33-1.33-2.98-1.33-4.96,0-2.42.65-4.34,1.96-5.77,1.31-1.43,2.84-2.15,4.59-2.15,1.47,0,2.74.6,3.82,1.8,1.08,1.2,1.66,2.99,1.74,5.35ZM196.32,379.6c0-1.66-.09-2.8-.27-3.42-.18-.62-.46-1.09-.84-1.41-.22-.19-.51-.28-.87-.28-.54,0-.98.26-1.32.79-.61.92-.91,2.18-.91,3.78v.54h4.21Z"/>
    <path class="cls-1" d="M216.2,373.51l.23,4.94h-.53c-.63-1.47-1.28-2.47-1.96-3-.68-.54-1.35-.81-2.02-.81-.42,0-.78.14-1.08.43-.3.28-.45.61-.45.98,0,.28.1.55.31.81.33.42,1.25,1.15,2.77,2.18,1.52,1.03,2.52,1.9,3,2.62.48.72.72,1.52.72,2.41,0,.81-.2,1.6-.6,2.37s-.97,1.37-1.7,1.78-1.54.62-2.43.62c-.69,0-1.62-.22-2.77-.65-.31-.11-.52-.17-.63-.17-.34,0-.62.26-.85.77h-.51l-.25-5.21h.53c.46,1.36,1.1,2.39,1.91,3.07.81.68,1.58,1.02,2.3,1.02.5,0,.9-.15,1.22-.46.31-.3.47-.67.47-1.11,0-.5-.15-.92-.46-1.29s-1-.91-2.08-1.64c-1.58-1.09-2.6-1.93-3.07-2.51-.68-.85-1.02-1.78-1.02-2.8,0-1.12.38-2.12,1.15-3.03.77-.9,1.88-1.36,3.34-1.36.78,0,1.54.19,2.28.57.28.15.51.23.68.23.19,0,.34-.04.45-.12.11-.08.29-.3.54-.66h.53Z"/>
    <path class="cls-1" d="M243.15,367.39v7.98c1.22-1.26,2.55-1.89,4-1.89.99,0,1.93.29,2.8.88.88.58,1.56,1.41,2.06,2.49s.74,2.31.74,3.72c0,1.58-.32,3.02-.94,4.31s-1.47,2.27-2.52,2.95c-1.05.68-2.26,1.01-3.61,1.01-.78,0-1.48-.12-2.09-.37-.61-.25-1.21-.65-1.8-1.21l-2.4,1.56h-.53v-18.42c0-.84-.04-1.35-.11-1.55-.1-.29-.27-.5-.49-.64-.22-.14-.6-.22-1.12-.24v-.57h6.01ZM243.15,376.75v6.44c0,1.31.03,2.15.09,2.51.1.61.35,1.1.74,1.48s.89.57,1.5.57c.53,0,.98-.15,1.36-.45.38-.3.69-.89.94-1.78.25-.89.38-2.49.38-4.8s-.28-3.74-.84-4.57c-.4-.6-.94-.9-1.63-.9-.89,0-1.74.5-2.56,1.5Z"/>
    <path class="cls-1" d="M272.56,380.64h-7.95c.09,1.92.6,3.44,1.53,4.55.71.86,1.57,1.29,2.57,1.29.62,0,1.18-.17,1.69-.52.51-.35,1.05-.97,1.63-1.87l.53.34c-.78,1.6-1.65,2.73-2.6,3.4-.95.67-2.05,1-3.3,1-2.15,0-3.77-.83-4.88-2.48-.89-1.33-1.33-2.98-1.33-4.96,0-2.42.65-4.34,1.96-5.77,1.31-1.43,2.84-2.15,4.59-2.15,1.47,0,2.74.6,3.82,1.8,1.08,1.2,1.66,2.99,1.74,5.35ZM268.75,379.6c0-1.66-.09-2.8-.27-3.42-.18-.62-.46-1.09-.84-1.41-.22-.19-.51-.28-.87-.28-.54,0-.98.26-1.32.79-.61.92-.91,2.18-.91,3.78v.54h4.21Z"/>
    <path class="cls-1" d="M285.23,368.62v5.3h3.44v1.53h-3.44v8.94c0,.84.04,1.38.12,1.62.08.24.21.44.41.59.2.15.38.22.54.22.67,0,1.31-.51,1.91-1.53l.46.34c-.84,1.98-2.19,2.97-4.07,2.97-.92,0-1.7-.26-2.33-.77-.64-.51-1.04-1.08-1.22-1.71-.1-.35-.15-1.3-.15-2.85v-7.82h-1.89v-.54c1.3-.92,2.41-1.88,3.32-2.9.91-1.01,1.71-2.14,2.39-3.39h.51Z"/>
    <path class="cls-1" d="M300.9,368.62v5.3h3.44v1.53h-3.44v8.94c0,.84.04,1.38.12,1.62.08.24.21.44.41.59.2.15.38.22.54.22.67,0,1.31-.51,1.91-1.53l.46.34c-.84,1.98-2.19,2.97-4.07,2.97-.92,0-1.7-.26-2.33-.77-.64-.51-1.04-1.08-1.22-1.71-.1-.35-.15-1.3-.15-2.85v-7.82h-1.89v-.54c1.3-.92,2.41-1.88,3.32-2.9.91-1.01,1.71-2.14,2.39-3.39h.51Z"/>
    <path class="cls-1" d="M323.09,380.64h-7.95c.09,1.92.6,3.44,1.53,4.55.71.86,1.57,1.29,2.57,1.29.62,0,1.18-.17,1.69-.52.51-.35,1.05-.97,1.63-1.87l.53.34c-.78,1.6-1.65,2.73-2.6,3.4-.95.67-2.05,1-3.3,1-2.15,0-3.77-.83-4.88-2.48-.89-1.33-1.33-2.98-1.33-4.96,0-2.42.65-4.34,1.96-5.77,1.31-1.43,2.84-2.15,4.59-2.15,1.47,0,2.74.6,3.82,1.8,1.08,1.2,1.66,2.99,1.74,5.35ZM319.28,379.6c0-1.66-.09-2.8-.27-3.42-.18-.62-.46-1.09-.84-1.41-.22-.19-.51-.28-.87-.28-.54,0-.98.26-1.32.79-.61.92-.91,2.18-.91,3.78v.54h4.21Z"/>
    <path class="cls-1" d="M336.02,373.91v3.28c.96-1.5,1.8-2.49,2.52-2.98.72-.49,1.42-.74,2.09-.74.58,0,1.04.18,1.39.53.35.36.52.86.52,1.51,0,.69-.17,1.23-.5,1.61s-.74.57-1.22.57c-.55,0-1.02-.18-1.43-.53s-.64-.55-.71-.59c-.1-.06-.22-.09-.36-.09-.3,0-.58.11-.85.34-.42.35-.74.85-.96,1.5-.33,1-.5,2.11-.5,3.31v3.33l.02.87c0,.59.04.97.11,1.13.12.28.31.48.55.61.24.13.65.21,1.23.24v.56h-7.82v-.56c.63-.05,1.06-.22,1.28-.52.22-.29.33-1.07.33-2.33v-8.01c0-.83-.04-1.35-.12-1.58-.1-.29-.25-.5-.45-.64-.2-.13-.54-.23-1.04-.28v-.57h5.92Z"/>
    <path class="cls-1" d="M349.18,383.63c.72,0,1.33.25,1.84.76.5.51.75,1.12.75,1.83s-.25,1.32-.76,1.82-1.12.75-1.83.75-1.32-.25-1.82-.75c-.5-.5-.75-1.11-.75-1.82s.25-1.32.75-1.83c.5-.51,1.11-.76,1.82-.76Z"/>
  </g>
  <g>
    <path class="cls-1" d="M165.86,255.25l-9.17,30.37c-.21.69-.85,1.17-1.57,1.17h-3.47c-.74,0-1.38-.49-1.58-1.2l-6.61-23.85-6.61,23.85c-.2.71-.84,1.2-1.58,1.2h-3.52c-.72,0-1.36-.47-1.57-1.16l-9.24-30.37c-.32-1.05.47-2.12,1.57-2.12h2.71c.73,0,1.38.49,1.58,1.2l6.81,24.16,6.59-24.14c.19-.71.84-1.21,1.58-1.21h3.31c.74,0,1.39.49,1.58,1.21l6.61,24.14,6.81-24.16c.2-.71.84-1.2,1.58-1.2h2.6c1.1,0,1.89,1.06,1.57,2.12Z"/>
    <path class="cls-1" d="M180.82,253.14h2.42c.91,0,1.64.73,1.64,1.64v30.37c0,.91-.73,1.64-1.64,1.64h-2.42c-.91,0-1.64-.73-1.64-1.64v-30.37c0-.91.73-1.64,1.64-1.64Z"/>
    <path class="cls-1" d="M225.07,263.58c0,6.33-3.95,10.4-10.65,10.4h-8.74v11.16c0,.91-.73,1.64-1.64,1.64h-2.42c-.91,0-1.64-.73-1.64-1.64v-30.37c0-.91.73-1.64,1.64-1.64h12.8c6.71,0,10.65,4.07,10.65,10.44ZM219.28,263.58c0-3.18-1.94-5.35-5.37-5.35h-8.22v10.7h8.22c3.43,0,5.37-2.17,5.37-5.35Z"/>
    <path class="cls-1" d="M239.07,253.14h20.34c.91,0,1.64.73,1.64,1.64v1.86c0,.91-.73,1.64-1.64,1.64h-16.28v8.95h14.6c.91,0,1.64.73,1.64,1.64v1.67c0,.91-.73,1.64-1.64,1.64h-14.6v9.46h16.51c.91,0,1.64.73,1.64,1.64v1.86c0,.91-.73,1.64-1.64,1.64h-20.57c-.91,0-1.64-.73-1.64-1.64v-30.37c0-.91.73-1.64,1.64-1.64Z"/>
    <path class="cls-1" d="M274.2,279.47l1.65-1.2c.7-.51,1.68-.39,2.23.29,2.09,2.59,5.12,3.8,9.12,3.8,4.39,0,7.29-1.94,7.29-4.84,0-3.65-3.9-4.46-8.22-5.28-5.61-1.03-12.22-2.29-12.22-9.88,0-5.98,5-9.93,12.83-9.93,5.17,0,9.55,1.8,12.3,5.03.62.73.45,1.83-.33,2.38l-1.67,1.18c-.69.49-1.62.35-2.19-.27-1.8-2-4.76-3.17-8.17-3.17-4.21,0-6.96,1.89-6.96,4.63,0,3.27,3.67,4.07,7.8,4.79,5.7,1.01,12.66,2.27,12.66,10.37,0,6.19-5.09,10.12-13.18,10.12-5.7,0-10.3-1.94-13.27-5.66-.58-.73-.43-1.8.32-2.35Z"/>
  </g>
  <path class="cls-1" d="M397.4,171.55c-.7-.72-4.41,3.62-5.15,4.24-13.45,11.27-34.95,14.04-48.53,1.44-1.03-.95-4.57-5.69-5.31-5.69-.64,0-4.45,4.62-5.49,5.5-11.85,10.14-27.62,10.89-39.69.71-12.53-10.58-23.36-25.56-35.24-37.01-1.1-.87-1.78-1.12-1.97.52-1.4,12.25,1.39,27.38.02,39.68-.15,1.3-.73,3.13-2.11,3.56-1.24.39-7.86.33-9.41.16-3.74-.42-4.6-3.43-5.41-6.64-.22-.89.24-1.96-.62-2.57-5.21,5.02-12.49,9.04-19.82,9.57-10.1.72-19.41-1.49-24.82-10.64-6.19,5.29-14.65,10.72-23,11.35-19.76,1.49-30.33-8.76-31.36-28.17-1.19-22.3.89-45.6-.02-68,.28-3.29,1.64-5.28,4.38-6.95,3.16-1.93,10.05-4.3,12.27-.11.52,22.96-.82,46.16.36,69.05.4,7.72.56,15.47,8.38,19.6,9.67,5.11,19.36-.98,25.22-8.7-.24-2.54-.52-5.48-.52-8.02.05-24.68.76-49.4.94-74.06.14-18.4-1.03-38.14-.03-56.34.24-4.45.54-7.12,3.9-10.26,2.37-2.22,11.24-8.27,12.88-2.94.69,2.23.29,9.38.25,12.17-.58,39.92-.46,80.15-.35,120.02.03,9.21-2.7,25.95,8.91,29.35,9.93,2.91,17.21-4.51,22.98-11.34.67-42.27.27-84.73.36-127.08,0-2.13-.03-4.21,0-6.34.03-2.63-.37-6.42,0-8.85.71-4.54,11.36-12.5,15.56-9.58.27.19,1.07,1.21,1.07,1.41v112.97l1.07.36c9.39-9.13,18.36-18.73,27.79-27.82,3.27-3.15,12.09-12.33,15.53-13.87,2.41-1.09,12.32-3.05,10.8,1.94-.06.2-2.4,2.88-2.77,3.26-12.16,12.55-26.7,24.21-38.09,37.36-.9,1.04-2.98,2.92-1.96,4.1,7.34,7.67,14.21,15.78,21.45,23.54,5.66,6.08,15.25,18.01,23.21,20.01,8.5,2.13,16.11-3.08,20.45-9.97-1.56-5.91-2.82-11.86-3.11-17.99-.75-16.2-.14-33.1,0-49.22.05-5.48-.95-11.06,4.74-14.06,3-1.59,11.35-3.69,11.94,1.29.81,19.7-1.1,40.28-.02,59.87.64,11.64,5.01,25.14,17.03,29.37,17.26,6.07,32.17-12.18,33.31-27.96,1.26-17.51-1.34-36.74-.03-54.21.15-1.95.41-3.57,1.6-5.13,2.76-3.62,8.54-5.85,13.03-4.85.94.21,2.04,1.72,2.04,2.56v95.79c5.17-1.72,10.14-4.04,15.31-5.77,6.8-2.27,14.17-4.2,21.18-5.75,4.95-1.09,13.46-3.26,18.24-3.38,3.49-.09,4.22,2.69,1.08,3.93-5.11,2.01-12.35,3.17-17.83,4.84-13.07,4-25.83,9.14-37.81,15.68l-.16,19.32c-.62,21.89-5.67,47.63-24.34,61.37-24.72,18.18-58.08-3.4-46.8-32.97,6.75-17.68,25.78-32.48,41.39-42.2,4.31-2.68,8.98-4.85,13.08-7.82v-13.63ZM397.4,196.34c-.55-.14-.83.15-1.26.34-15.06,6.72-40.51,27.48-43.93,44.27-3.77,18.53,14.27,29.39,28.72,17.03,11.55-9.89,15.11-31.41,16.11-45.87l.36-15.75Z"/>
  <path class="cls-1" d="M345.36,212.01c2.57,2.55-5.31,6.61-6.99,7.54-60.75,33.48-139.85,9.52-202.92-3.98-37.21-7.96-69.47-10.6-107.61-9.33-4.71.16-9.81,1.26-14.51.72-5.03-.57-5.71-6.52-3.5-10.23,17.89-29.02,35.48-58.23,53.34-87.27,11.99-19.48,25.43-39.18,36.71-58.92.42-.74,1.47-2.38,1.51-3.12l-.46-.63-74.46-.28c-5.54-.78-4.97-9.72.66-9.9l91.88.26c2.1.29,4.2,3.3,4.34,5.25s-1.43,3.86-2.35,5.45c-9.45,16.32-20.45,32.46-30.41,48.58-20.22,32.73-40.15,65.63-60.25,98.43l.16,1.24c.5.33,4.55.21,5.52.18,37.11-1.22,68.07.75,104.33,9,65.19,14.83,129.92,38.78,195.78,10.17,1.89-.82,6.38-3.68,8.05-3.59.33.02.96.2,1.19.43Z"/>
</svg>