<?xml version="1.0" encoding="UTF-8"?>
<svg id="Layer_1" data-name="Layer 1" xmlns="http://www.w3.org/2000/svg" viewBox="0 0 475.35 292.46">
  <defs>
    <style>
      .cls-1 {
        fill: #fff;
      }

      .cls-2 {
        fill: #4a8ca5;
      }

      .cls-3 {
        fill: #1f3556;
      }
    </style>
  </defs>
  <path class="cls-1" d="M165.19,46.93c-1.15-2.58-3.62-3.54-4.68-.4,2.48-2.67,4.1-.37,4.78,2.34l.5,4.58c-.05-2.24.34-4.41-.6-6.52Z"/>
  <path class="cls-2" d="M154.99,61.19c-.13-1.01-.87-1.59-1.24-2.63-2.41-6.89-1.37-14.14,3.28-19.77h-10.38c-1.15,0-3.99,2.48-5.29,2.85-.79-.7,2.49-3.45.08-2.78-2.13.6-4.34,2.35-5.78,3.99-.22-1.64,1.97-2.79,2.65-4.07-10.84.42-11.91,23.52-.2,22.39,1.79-.17,3.43-1.45,5.26-1.22,1.66.21,4.43,3.11,6.55,3.26l-3.05-4.89c2.01,2.01,4.27,4.44,7.33,4.47-1.51-1.83-3.52-3.49-3.66-6.1l2.63,3.27,1.84,1.21Z"/>
  <path class="cls-2" d="M160.21,25.85c1.36.78,2.75,1.38,4.36,1.13.32-1.53-3.04-3.76-4-3.19l-.82,1.43c-.25.77.13.44.46.64Z"/>
  <path class="cls-2" d="M144.04,32.89l-.44-6.31c.56.19.89,1.87,1.03,2.43.56,2.41.69,4.88.6,7.34,3.06.41,4.28-2.47,5.91-4.48l-1.02,4.48c2.24-.52,4.35-.58,6.12-2.22.68-.63,1.08-1.56,1.81-2.27.57-.55,4.08-2.98,3.47-3.65-3.53-.35-6.09-3.37-9.09-4.96-3.64-1.93-9.24-3.78-12.85-1.3.21,4.77,2.37,9.4,3.62,13.99l.84-3.05Z"/>
  <path class="cls-1" d="M167.29,42.58c-1.55-2.49-4.05-4.32-7.11-3.69-4.89,1-6.72,9.33-6.4,13.54.41,5.29,4.25,14.25,10.79,9.99,5.54-3.61,5.99-14.6,2.72-19.83ZM161.67,59.14c-5.92.21-6.33-15.11-.67-16.21,3.14-.61,5.13,4.13,5.4,6.66.33,3.05-.79,9.42-4.73,9.56Z"/>
  <path class="cls-3" d="M164.5,38.04c-.39-.19-2.16-.88-2.38-.88h-6.31c.62-4.88,13.24-8.05,7.53-13.43-2.36-2.23-4.57-2.21-6.1.79-5.14-3.7-11.34-6.36-17.75-4.69-.73.19-1.71.55-1.95,1.33l4.42,16c-13.45-2.13-17.42,16.27-9.99,24.45.8.88,2.42,1.3,2.67,2.63,0,.37-8.35.93-4.07,2.85,2.04.92,10.13,1.34,12.8,1.45,8.73.36,18.3.23,26.69-2.06.17-.92-.05-.65-.52-.9-1.23-.68-3.36-.98-4.78-1.13l3.84-4.51c3.93-5.79,2.55-18.68-4.1-21.89ZM158.72,25.21l.82-1.43c.96-.56,4.32,1.67,4,3.19-1.62.25-3.01-.35-4.36-1.13-.33-.19-.72.13-.46-.64ZM139.57,21.95c3.61-2.49,9.2-.63,12.85,1.3,3.01,1.59,5.56,4.61,9.09,4.96.6.67-2.91,3.1-3.47,3.65-.72.71-1.12,1.63-1.81,2.27-1.76,1.64-3.88,1.7-6.12,2.22l1.02-4.48c-1.62,2.01-2.85,4.89-5.91,4.48.09-2.47-.04-4.94-.6-7.34-.13-.56-.47-2.23-1.03-2.43l.44,6.31-.84,3.05c-1.25-4.59-3.41-9.21-3.62-13.99ZM154.18,62.81c-3.06-.03-5.32-2.47-7.33-4.47l3.05,4.89c-2.12-.14-4.88-3.04-6.55-3.26-1.82-.24-3.47,1.04-5.26,1.22-11.71,1.13-10.64-21.97.2-22.39-.68,1.28-2.87,2.42-2.65,4.07,1.45-1.64,3.65-3.39,5.78-3.99,2.42-.68-.87,2.07-.08,2.78,1.3-.37,4.14-2.85,5.29-2.85h10.38c-4.64,5.63-5.69,12.88-3.28,19.77.36,1.04,1.1,1.62,1.24,2.63l-1.84-1.21-2.63-3.27c.15,2.61,2.15,4.27,3.66,6.1ZM164.57,62.42c-6.54,4.26-10.38-4.7-10.79-9.99-.33-4.21,1.51-12.54,6.4-13.54,3.06-.63,5.56,1.2,7.11,3.69,3.27,5.24,2.82,16.22-2.72,19.83Z"/>
  <path class="cls-3" d="M161,42.92c-5.66,1.1-5.25,16.42.67,16.21,3.94-.14,5.06-6.5,4.73-9.56-.27-2.52-2.26-7.26-5.4-6.66ZM164.77,53.45l-.5-4.58c-.68-2.71-2.3-5-4.78-2.34,1.06-3.13,3.53-2.17,4.68.4.94,2.11.55,4.28.6,6.52Z"/>
  <g>
    <path class="cls-2" d="M163.3,253.46l-9.17,30.37c-.21.69-.85,1.17-1.57,1.17h-3.47c-.74,0-1.38-.49-1.58-1.2l-6.61-23.85-6.61,23.85c-.2.71-.84,1.2-1.58,1.2h-3.52c-.72,0-1.36-.47-1.57-1.16l-9.24-30.37c-.32-1.05.47-2.12,1.57-2.12h2.71c.73,0,1.38.49,1.58,1.2l6.81,24.16,6.59-24.14c.19-.71.84-1.21,1.58-1.21h3.31c.74,0,1.39.49,1.58,1.21l6.61,24.14,6.81-24.16c.2-.71.84-1.2,1.58-1.2h2.6c1.1,0,1.89,1.06,1.57,2.12Z"/>
    <path class="cls-2" d="M178.26,251.34h2.42c.91,0,1.64.73,1.64,1.64v30.37c0,.91-.73,1.64-1.64,1.64h-2.42c-.91,0-1.64-.73-1.64-1.64v-30.37c0-.91.73-1.64,1.64-1.64Z"/>
    <path class="cls-2" d="M222.5,261.79c0,6.33-3.95,10.4-10.65,10.4h-8.74v11.16c0,.91-.73,1.64-1.64,1.64h-2.42c-.91,0-1.64-.73-1.64-1.64v-30.37c0-.91.73-1.64,1.64-1.64h12.8c6.71,0,10.65,4.07,10.65,10.44ZM216.71,261.79c0-3.18-1.94-5.35-5.37-5.35h-8.22v10.7h8.22c3.43,0,5.37-2.17,5.37-5.35Z"/>
    <path class="cls-2" d="M236.5,251.34h20.34c.91,0,1.64.73,1.64,1.64v1.86c0,.91-.73,1.64-1.64,1.64h-16.28v8.95h14.6c.91,0,1.64.73,1.64,1.64v1.67c0,.91-.73,1.64-1.64,1.64h-14.6v9.46h16.51c.91,0,1.64.73,1.64,1.64v1.86c0,.91-.73,1.64-1.64,1.64h-20.57c-.91,0-1.64-.73-1.64-1.64v-30.37c0-.91.73-1.64,1.64-1.64Z"/>
    <path class="cls-2" d="M271.63,277.68l1.65-1.2c.7-.51,1.68-.39,2.23.29,2.09,2.59,5.12,3.8,9.12,3.8,4.39,0,7.29-1.94,7.29-4.84,0-3.65-3.9-4.46-8.22-5.28-5.61-1.03-12.22-2.29-12.22-9.88,0-5.98,5-9.93,12.83-9.93,5.17,0,9.55,1.8,12.3,5.03.62.73.45,1.83-.33,2.38l-1.67,1.18c-.69.49-1.62.35-2.19-.27-1.8-2-4.76-3.17-8.17-3.17-4.21,0-6.96,1.89-6.96,4.63,0,3.27,3.67,4.07,7.8,4.79,5.7,1.01,12.66,2.27,12.66,10.37,0,6.19-5.09,10.12-13.18,10.12-5.7,0-10.3-1.94-13.27-5.66-.58-.73-.43-1.8.32-2.35Z"/>
  </g>
  <path class="cls-3" d="M394.84,169.76c-.7-.72-4.41,3.62-5.15,4.24-13.45,11.27-34.95,14.04-48.53,1.44-1.03-.95-4.57-5.69-5.31-5.69-.64,0-4.45,4.62-5.49,5.5-11.85,10.14-27.62,10.89-39.69.71-12.53-10.58-23.36-25.56-35.24-37.01-1.1-.87-1.78-1.12-1.97.52-1.4,12.25,1.39,27.38.02,39.68-.15,1.3-.73,3.13-2.11,3.56-1.24.39-7.86.33-9.41.16-3.74-.42-4.6-3.43-5.41-6.64-.22-.89.24-1.96-.62-2.57-5.21,5.02-12.49,9.04-19.82,9.57-10.1.72-19.41-1.49-24.82-10.64-6.19,5.29-14.65,10.72-23,11.35-19.76,1.49-30.33-8.76-31.36-28.17-1.19-22.3.89-45.6-.02-68,.28-3.29,1.64-5.28,4.38-6.95,3.16-1.93,10.05-4.3,12.27-.11.52,22.96-.82,46.16.36,69.05.4,7.72.56,15.47,8.38,19.6,9.67,5.11,19.36-.98,25.22-8.7-.24-2.54-.52-5.48-.52-8.02.05-24.68.76-49.4.94-74.06.14-18.4-1.03-38.14-.03-56.34.24-4.45.54-7.12,3.9-10.26,2.37-2.22,11.24-8.27,12.88-2.94.69,2.23.29,9.38.25,12.17-.58,39.92-.46,80.15-.35,120.02.03,9.21-2.7,25.95,8.91,29.35,9.93,2.91,17.21-4.51,22.98-11.34.67-42.27.27-84.73.36-127.08,0-2.13-.03-4.21,0-6.34.03-2.63-.37-6.42,0-8.85.71-4.54,11.36-12.5,15.56-9.58.27.19,1.07,1.21,1.07,1.41v112.97l1.07.36c9.39-9.13,18.36-18.73,27.79-27.82,3.27-3.15,12.09-12.33,15.53-13.87,2.41-1.09,12.32-3.05,10.8,1.94-.06.2-2.4,2.88-2.77,3.26-12.16,12.55-26.7,24.21-38.09,37.36-.9,1.04-2.98,2.92-1.96,4.1,7.34,7.67,14.21,15.78,21.45,23.54,5.66,6.08,15.25,18.01,23.21,20.01,8.5,2.13,16.11-3.08,20.45-9.97-1.56-5.91-2.82-11.86-3.11-17.99-.75-16.2-.14-33.1,0-49.22.05-5.48-.95-11.06,4.74-14.06,3-1.59,11.35-3.69,11.94,1.29.81,19.7-1.1,40.28-.02,59.87.64,11.64,5.01,25.14,17.03,29.37,17.26,6.07,32.17-12.18,33.31-27.96,1.26-17.51-1.34-36.74-.03-54.21.15-1.95.41-3.57,1.6-5.13,2.76-3.62,8.54-5.85,13.03-4.85.94.21,2.04,1.72,2.04,2.56v95.79c5.17-1.72,10.14-4.04,15.31-5.77,6.8-2.27,14.17-4.2,21.18-5.75,4.95-1.09,13.46-3.26,18.24-3.38,3.49-.09,4.22,2.69,1.08,3.93-5.11,2.01-12.35,3.17-17.83,4.84-13.07,4-25.83,9.14-37.81,15.68l-.16,19.32c-.62,21.89-5.67,47.63-24.34,61.37-24.72,18.18-58.08-3.4-46.8-32.97,6.75-17.68,25.78-32.48,41.39-42.2,4.31-2.68,8.98-4.85,13.08-7.82v-13.63ZM394.83,194.55c-.55-.14-.83.15-1.26.34-15.06,6.72-40.51,27.48-43.93,44.27-3.77,18.53,14.27,29.39,28.72,17.03,11.55-9.89,15.11-31.41,16.11-45.87l.36-15.75Z"/>
  <path class="cls-3" d="M342.79,210.22c2.57,2.55-5.31,6.61-6.99,7.54-60.75,33.48-139.85,9.52-202.92-3.98-37.21-7.96-69.47-10.6-107.61-9.33-4.71.16-9.81,1.26-14.51.72-5.03-.57-5.71-6.52-3.5-10.23,17.89-29.02,35.48-58.23,53.34-87.27,11.99-19.48,25.43-39.18,36.71-58.92.42-.74,1.47-2.38,1.51-3.12l-.46-.63-74.46-.28c-5.54-.78-4.97-9.72.66-9.9l91.88.26c2.1.29,4.2,3.3,4.34,5.25s-1.43,3.86-2.35,5.45c-9.45,16.32-20.45,32.46-30.41,48.58-20.22,32.73-40.15,65.63-60.25,98.43l.16,1.24c.5.33,4.55.21,5.52.18,37.11-1.22,68.07.75,104.33,9,65.19,14.83,129.92,38.78,195.78,10.17,1.89-.82,6.38-3.68,8.05-3.59.33.02.96.2,1.19.43Z"/>
</svg>