<?xml version="1.0" encoding="UTF-8"?>
<svg id="Layer_1" data-name="Layer 1" xmlns="http://www.w3.org/2000/svg" viewBox="0 0 481.22 293.57">
  <defs>
    <style>
      .cls-1 {
        fill: #fff;
      }

      .cls-2 {
        fill: #4a8ca5;
      }

      .cls-3 {
        fill: #1f3556;
      }
    </style>
  </defs>
  <path class="cls-1" d="M166.47,52.54c-1.16-2.61-3.67-3.58-4.75-.41,2.52-2.7,4.16-.38,4.85,2.37l.51,4.65c-.06-2.27.34-4.47-.61-6.61Z"/>
  <path class="cls-2" d="M157.18,66.99c-.14-1.02-.88-1.61-1.25-2.66-2.45-6.98-1.38-14.33,3.32-20.04h-10.52c-1.16,0-4.04,2.52-5.36,2.89-.8-.71,2.53-3.5.08-2.81-2.16.61-4.39,2.39-5.86,4.05-.23-1.67,2-2.83,2.68-4.12-10.99.43-12.07,23.84-.2,22.7,1.81-.17,3.48-1.47,5.33-1.23,1.69.22,4.49,3.16,6.64,3.3l-3.09-4.96c2.04,2.03,4.32,4.5,7.43,4.54-1.53-1.85-3.56-3.54-3.71-6.18l2.67,3.31,1.86,1.23Z"/>
  <path class="cls-2" d="M161.42,31.17c1.37.79,2.79,1.4,4.42,1.15.32-1.55-3.08-3.81-4.06-3.24l-.84,1.45c-.26.78.13.45.47.64Z"/>
  <path class="cls-2" d="M146.07,38.3l-.44-6.39c.57.2.91,1.89,1.04,2.46.57,2.44.7,4.94.61,7.44,3.1.41,4.34-2.51,5.99-4.54l-1.03,4.54c2.27-.53,4.41-.59,6.2-2.25.69-.64,1.1-1.58,1.83-2.3.57-.56,4.13-3.02,3.52-3.7-3.58-.36-6.17-3.41-9.22-5.03-3.69-1.96-9.37-3.84-13.02-1.32.21,4.84,2.4,9.53,3.67,14.18l.86-3.1Z"/>
  <path class="cls-1" d="M169.64,48.13c-1.58-2.53-4.11-4.38-7.21-3.74-4.95,1.02-6.81,9.45-6.48,13.72.41,5.36,4.31,14.44,10.94,10.12,5.62-3.66,6.07-14.8,2.76-20.1ZM163.95,64.91c-6,.21-6.42-15.32-.68-16.43,3.18-.62,5.2,4.19,5.47,6.75.34,3.1-.8,9.55-4.79,9.69Z"/>
  <path class="cls-3" d="M166.82,43.53c-.39-.19-2.19-.89-2.41-.89h-6.4c.63-4.94,13.42-8.16,7.63-13.62-2.39-2.26-4.63-2.24-6.18.8-5.21-3.75-11.49-6.45-17.99-4.75-.74.19-1.74.56-1.97,1.35l4.48,16.21c-13.64-2.16-17.66,16.49-10.13,24.78.81.9,2.45,1.31,2.7,2.66,0,.37-8.46.94-4.13,2.89,2.07.93,10.26,1.36,12.98,1.47,8.84.36,18.55.24,27.05-2.09.17-.93-.05-.66-.52-.92-1.25-.68-3.4-1-4.84-1.14l3.89-4.57c3.98-5.87,2.58-18.94-4.16-22.19ZM160.96,30.53l.84-1.45c.98-.57,4.38,1.69,4.06,3.24-1.64.25-3.05-.36-4.42-1.15-.34-.19-.73.13-.47-.64ZM141.55,27.22c3.66-2.52,9.33-.64,13.02,1.32,3.05,1.61,5.64,4.67,9.22,5.03.61.68-2.95,3.14-3.52,3.7-.73.72-1.14,1.65-1.83,2.3-1.79,1.67-3.93,1.73-6.2,2.25l1.03-4.54c-1.64,2.03-2.89,4.95-5.99,4.54.09-2.5-.04-5-.61-7.44-.13-.57-.47-2.26-1.04-2.46l.44,6.39-.86,3.1c-1.27-4.65-3.46-9.34-3.67-14.18ZM156.36,68.64c-3.1-.03-5.39-2.5-7.43-4.54l3.09,4.96c-2.14-.14-4.95-3.08-6.64-3.3-1.85-.24-3.51,1.06-5.33,1.23-11.86,1.14-10.79-22.27.2-22.7-.68,1.29-2.91,2.45-2.68,4.12,1.47-1.66,3.7-3.44,5.86-4.05,2.45-.69-.88,2.1-.08,2.81,1.32-.38,4.2-2.89,5.36-2.89h10.52c-4.7,5.71-5.77,13.06-3.32,20.04.37,1.05,1.12,1.64,1.25,2.66l-1.86-1.23-2.67-3.31c.15,2.65,2.18,4.33,3.71,6.18ZM166.89,68.23c-6.63,4.32-10.52-4.76-10.94-10.12-.33-4.27,1.53-12.71,6.48-13.72,3.1-.64,5.63,1.22,7.21,3.74,3.31,5.31,2.86,16.44-2.76,20.1Z"/>
  <path class="cls-3" d="M163.27,48.48c-5.73,1.11-5.32,16.64.68,16.43,3.99-.14,5.13-6.59,4.79-9.69-.28-2.56-2.29-7.36-5.47-6.75ZM167.08,59.15l-.51-4.65c-.69-2.75-2.33-5.07-4.85-2.37,1.08-3.17,3.58-2.2,4.75.41.95,2.14.56,4.33.61,6.61Z"/>
  <g>
    <path class="cls-2" d="M423.65,151.42l15.2,4.59c.35.1.58.42.58.79v1.74c0,.37-.25.69-.6.79l-11.93,3.31,11.93,3.31c.36.1.6.42.6.79v1.76c0,.36-.24.68-.58.79l-15.2,4.62c-.53.16-1.06-.23-1.06-.79v-1.36c0-.37.24-.69.6-.79l12.09-3.41-12.08-3.3c-.36-.1-.6-.42-.6-.79v-1.66c0-.37.25-.69.6-.79l12.08-3.31-12.09-3.41c-.35-.1-.6-.42-.6-.79v-1.3c0-.55.53-.95,1.06-.79Z"/>
    <path class="cls-2" d="M422.59,143.94v-1.21c0-.45.37-.82.82-.82h15.2c.45,0,.82.37.82.82v1.21c0,.45-.37.82-.82.82h-15.2c-.45,0-.82-.37-.82-.82Z"/>
    <path class="cls-2" d="M427.82,121.79c3.17,0,5.2,1.98,5.2,5.33v4.37s5.59,0,5.59,0c.45,0,.82.37.82.82v1.21c0,.45-.37.82-.82.82h-15.2c-.45,0-.82-.37-.82-.82v-6.4c0-3.36,2.03-5.33,5.23-5.33ZM427.82,124.69c-1.59,0-2.68.97-2.68,2.69v4.12s5.36,0,5.36,0v-4.12c0-1.72-1.09-2.69-2.68-2.69Z"/>
    <path class="cls-2" d="M422.59,114.79v-10.18c0-.45.37-.82.82-.82h.93c.45,0,.82.37.82.82v8.15s4.48,0,4.48,0v-7.31c0-.45.37-.82.82-.82h.84c.45,0,.82.37.82.82v7.31s4.74,0,4.74,0v-8.26c0-.45.37-.82.82-.82h.93c.45,0,.82.37.82.82v10.3c0,.45-.37.82-.82.82h-15.2c-.45,0-.82-.37-.82-.82Z"/>
    <path class="cls-2" d="M435.77,97.21l-.6-.82c-.26-.35-.19-.84.14-1.12,1.29-1.05,1.9-2.56,1.9-4.56,0-2.2-.97-3.65-2.42-3.65-1.82,0-2.23,1.95-2.64,4.12-.51,2.81-1.15,6.12-4.95,6.12-2.99,0-4.97-2.5-4.97-6.42,0-2.59.9-4.78,2.52-6.16.36-.31.92-.23,1.19.16l.59.84c.24.35.18.81-.14,1.09-1,.9-1.59,2.38-1.59,4.09,0,2.1.95,3.48,2.32,3.48,1.64,0,2.03-1.84,2.4-3.91.5-2.85,1.13-6.34,5.19-6.34,3.1,0,5.06,2.55,5.06,6.59,0,2.85-.97,5.16-2.83,6.64-.36.29-.9.22-1.18-.16Z"/>
  </g>
  <g>
    <path class="cls-3" d="M399.25,177.04c-.71-.73-4.47,3.67-5.22,4.3-13.64,11.42-35.43,14.23-49.19,1.46-1.04-.97-4.63-5.77-5.38-5.76-.65,0-4.51,4.68-5.56,5.58-12.01,10.28-28,11.04-40.23.72-12.71-10.72-23.68-25.9-35.72-37.52-1.12-.88-1.81-1.13-2,.52-1.42,12.42,1.41,27.75.02,40.22-.15,1.32-.74,3.17-2.14,3.61-1.26.39-7.97.34-9.54.16-3.79-.42-4.66-3.48-5.48-6.73-.23-.9.25-1.98-.62-2.6-5.28,5.08-12.66,9.16-20.09,9.7-10.24.73-19.67-1.51-25.16-10.78-6.27,5.37-14.85,10.86-23.31,11.5-20.03,1.51-30.74-8.88-31.79-28.55-1.2-22.6.9-46.22-.02-68.93.29-3.33,1.66-5.35,4.44-7.05,3.21-1.96,10.19-4.35,12.44-.11.52,23.28-.83,46.79.36,69.99.4,7.83.57,15.68,8.49,19.87,9.8,5.18,19.62-.99,25.57-8.81-.25-2.58-.53-5.56-.53-8.12.05-25.02.77-50.07.96-75.07.14-18.65-1.04-38.66-.03-57.1.25-4.51.55-7.21,3.96-10.4,2.4-2.25,11.39-8.38,13.06-2.98.7,2.27.29,9.51.25,12.34-.58,40.47-.47,81.24-.36,121.65.03,9.33-2.73,26.3,9.03,29.75,10.07,2.95,17.45-4.57,23.29-11.49.68-42.85.27-85.89.36-128.81,0-2.16-.03-4.27,0-6.43.03-2.66-.38-6.51,0-8.97.72-4.6,11.52-12.67,15.77-9.71.27.19,1.08,1.23,1.08,1.43v114.51l1.08.37c9.52-9.26,18.61-18.98,28.17-28.19,3.32-3.19,12.26-12.49,15.74-14.06,2.45-1.1,12.49-3.09,10.95,1.97-.06.21-2.43,2.92-2.8,3.3-12.32,12.72-27.06,24.54-38.6,37.87-.92,1.06-3.02,2.96-1.99,4.15,7.44,7.77,14.41,15.99,21.74,23.86,5.74,6.16,15.46,18.26,23.52,20.28,8.61,2.16,16.33-3.12,20.73-10.11-1.58-5.99-2.86-12.02-3.15-18.24-.76-16.42-.14-33.55,0-49.89.05-5.55-.96-11.21,4.8-14.26,3.04-1.61,11.51-3.74,12.1,1.31.82,19.96-1.12,40.83-.02,60.69.65,11.79,5.08,25.49,17.26,29.77,17.49,6.16,32.61-12.34,33.76-28.34,1.28-17.75-1.36-37.24-.03-54.95.15-1.97.41-3.61,1.62-5.2,2.8-3.67,8.66-5.93,13.21-4.92.95.21,2.06,1.75,2.06,2.6v97.1c5.24-1.74,10.28-4.09,15.52-5.85,6.89-2.31,14.36-4.25,21.46-5.82,5.02-1.11,13.65-3.3,18.49-3.43,3.53-.09,4.28,2.73,1.1,3.98-5.18,2.04-12.52,3.21-18.07,4.91-13.24,4.05-26.18,9.27-38.32,15.89l-.16,19.58c-.63,22.19-5.74,48.28-24.67,62.2-25.05,18.43-58.87-3.44-47.43-33.42,6.84-17.92,26.13-32.92,41.96-42.77,4.37-2.72,9.1-4.92,13.26-7.93v-13.82ZM399.24,202.17c-.56-.14-.85.15-1.27.34-15.27,6.81-41.06,27.85-44.53,44.87-3.82,18.79,14.46,29.79,29.11,17.26,11.71-10.02,15.32-31.84,16.33-46.5l.36-15.97Z"/>
    <path class="cls-3" d="M349.61,218.05c2.6,2.59-5.38,6.7-7.09,7.64-61.58,33.93-141.75,9.65-205.68-4.03-37.72-8.07-70.41-10.74-109.07-9.45-4.78.16-9.94,1.28-14.71.73-5.1-.58-5.79-6.61-3.55-10.37,18.14-29.41,35.96-59.02,54.07-88.45,12.15-19.74,25.77-39.71,37.21-59.72.43-.75,1.49-2.42,1.53-3.16l-.47-.64-75.47-.29c-5.62-.79-5.03-9.85.67-10.04l93.13.26c2.13.29,4.26,3.34,4.4,5.32s-1.45,3.91-2.39,5.53c-9.58,16.55-20.73,32.91-30.82,49.24-20.49,33.17-40.7,66.52-61.07,99.77l.16,1.26c.5.33,4.61.22,5.59.18,37.61-1.24,69,.76,105.75,9.12,66.08,15.03,131.69,39.31,198.44,10.31,1.92-.83,6.47-3.73,8.16-3.64.34.02.97.2,1.2.43Z"/>
  </g>
  <g>
    <path class="cls-3" d="M14.01,226.83c1.09.2,1.85.47,2.3.8.65.48.99,1.12,1.03,1.92.04.85-.27,1.57-.93,2.16-.81.71-2.01,1.11-3.61,1.18l-5.75.27v-.31c.51-.02.86-.09,1.04-.2.18-.11.31-.24.37-.4.07-.16.09-.54.06-1.16l-.35-7.34c-.03-.61-.09-.99-.17-1.15-.08-.15-.22-.27-.41-.36-.19-.09-.55-.12-1.07-.09v-.31s5.41-.26,5.41-.26c1.3-.06,2.22.01,2.77.22.55.21.99.53,1.33.97.33.44.51.92.54,1.44.03.54-.15,1.04-.52,1.48-.37.44-1.05.81-2.04,1.11ZM10.96,226.75c.79-.04,1.37-.15,1.73-.35.37-.2.64-.46.83-.79s.27-.75.24-1.25c-.02-.5-.14-.91-.35-1.22-.21-.31-.51-.54-.88-.69-.37-.15-.97-.2-1.78-.16l.21,4.45ZM10.99,227.4l.17,3.63v.42c.03.3.11.52.27.67.16.15.39.21.69.2.44-.02.85-.14,1.22-.35.37-.22.64-.52.82-.9.18-.38.26-.81.24-1.27-.03-.53-.17-1-.43-1.4-.26-.41-.62-.69-1.05-.83-.44-.15-1.08-.2-1.93-.15Z"/>
    <path class="cls-3" d="M26.85,228.34l-4.28.07c.07,1.03.35,1.85.86,2.44.39.46.86.68,1.4.67.33,0,.64-.1.91-.29.27-.19.56-.53.86-1.02l.29.18c-.41.87-.87,1.49-1.37,1.85s-1.1.56-1.77.57c-1.16.02-2.04-.41-2.65-1.3-.49-.71-.74-1.6-.76-2.66-.02-1.3.32-2.34,1.01-3.13.69-.78,1.51-1.18,2.46-1.19.79-.01,1.48.3,2.07.94.59.64.92,1.6.98,2.87ZM24.79,227.81c-.01-.9-.07-1.51-.17-1.84-.1-.33-.26-.58-.47-.75-.12-.1-.28-.15-.47-.14-.29,0-.52.15-.7.44-.32.5-.47,1.18-.46,2.04v.29s2.28-.04,2.28-.04Z"/>
    <path class="cls-3" d="M35.95,230.54l.26.2c-.37.69-.83,1.2-1.38,1.53-.55.33-1.13.5-1.75.49-1.04,0-1.87-.4-2.49-1.19-.62-.79-.92-1.73-.92-2.84,0-1.06.3-2,.87-2.8.69-.97,1.64-1.45,2.84-1.44.81,0,1.45.21,1.92.62s.71.86.71,1.37c0,.32-.1.57-.29.76-.19.19-.45.28-.76.28-.33,0-.6-.11-.81-.33-.21-.22-.34-.61-.39-1.16-.03-.35-.11-.6-.24-.74-.13-.14-.28-.21-.45-.21-.27,0-.5.14-.69.42-.29.43-.44,1.08-.45,1.97,0,.74.11,1.44.34,2.11.23.67.55,1.17.95,1.5.3.24.67.36,1.08.37.27,0,.53-.06.78-.19.25-.13.54-.37.87-.72Z"/>
    <path class="cls-3" d="M43.16,231.56c-.97.81-1.84,1.21-2.6,1.19-.45-.01-.81-.17-1.1-.47-.29-.3-.42-.67-.41-1.11.02-.6.29-1.12.81-1.59.53-.46,1.66-1.06,3.4-1.81l.02-.78c.02-.59,0-.96-.07-1.12-.06-.15-.18-.29-.35-.41-.18-.12-.37-.18-.6-.19-.36-.01-.66.06-.9.22-.15.1-.22.21-.23.35,0,.12.07.26.22.44.2.24.3.48.3.7,0,.27-.12.5-.32.69-.21.19-.48.28-.81.27-.35,0-.64-.12-.87-.34-.23-.22-.34-.47-.33-.75.01-.4.18-.78.51-1.13.33-.36.78-.62,1.35-.8.57-.18,1.17-.26,1.78-.24.74.02,1.32.19,1.74.52.42.33.69.67.81,1.05.07.24.1.77.07,1.61l-.08,3.03c0,.36,0,.58.02.67.03.09.07.16.12.21.05.05.12.07.19.07.14,0,.29-.09.45-.3l.24.21c-.29.4-.59.7-.89.87-.3.18-.64.26-1.02.25-.45-.01-.79-.13-1.04-.34-.24-.22-.39-.54-.43-.96ZM43.18,230.96l.07-2.61c-.68.38-1.2.79-1.54,1.23-.23.29-.34.6-.35.9,0,.26.08.48.26.68.14.15.33.23.58.24.28,0,.61-.14.98-.44Z"/>
    <path class="cls-3" d="M56.95,225.48l-.3,6.1c-.03.6,0,.97.11,1.12.1.15.32.26.66.31v.3s-3.19-.16-3.19-.16l.05-1.04c-.39.43-.78.73-1.17.92-.38.18-.8.27-1.27.24-.44-.02-.82-.18-1.15-.46-.33-.29-.54-.61-.64-.98-.1-.37-.13-1-.08-1.9l.15-3.09c.03-.59,0-.96-.11-1.11s-.32-.26-.67-.32l.02-.31,3.18.16-.26,5.33c-.03.56-.02.92.03,1.08.04.16.12.29.23.38.11.09.24.14.39.14.2.01.38-.03.55-.13.23-.13.51-.41.84-.84l.21-4.17c.03-.59,0-.96-.11-1.11s-.32-.26-.67-.32l.02-.31,3.18.16Z"/>
    <path class="cls-3" d="M65.68,225.83l-.06,2.67-.28-.02c-.28-.81-.6-1.38-.94-1.69-.34-.31-.7-.48-1.06-.51-.23-.02-.43.05-.6.19-.17.14-.26.31-.28.51-.01.15.03.3.14.44.16.24.63.66,1.41,1.27s1.28,1.12,1.51,1.52c.23.4.33.84.3,1.32-.03.43-.17.85-.41,1.25-.25.4-.57.7-.98.89-.41.19-.85.28-1.33.24-.37-.03-.86-.18-1.47-.45-.16-.07-.27-.11-.34-.12-.18-.01-.35.12-.49.38l-.28-.02.06-2.81.28.02c.2.75.5,1.32.91,1.72.41.4.81.61,1.2.64.27.02.49-.05.67-.2.18-.15.28-.35.3-.58.02-.27-.05-.5-.2-.71-.15-.21-.5-.52-1.06-.96-.81-.65-1.33-1.14-1.56-1.46-.33-.48-.48-1-.45-1.55.04-.6.29-1.13.73-1.59.45-.46,1.06-.66,1.85-.6.42.03.82.16,1.2.39.14.09.26.14.36.15.1,0,.18,0,.25-.05.06-.04.17-.15.32-.33l.28.02Z"/>
    <path class="cls-3" d="M75.46,230.51l-4.27-.37c-.04,1.04.16,1.87.61,2.52.34.49.78.76,1.32.81.33.03.64-.04.93-.2.29-.16.61-.47.96-.93l.27.21c-.5.82-1.02,1.39-1.56,1.7-.54.31-1.15.44-1.82.38-1.15-.1-1.99-.62-2.5-1.56-.41-.76-.58-1.67-.48-2.72.11-1.3.55-2.3,1.32-3.01.77-.71,1.62-1.02,2.57-.94.79.07,1.44.45,1.97,1.15.52.7.75,1.68.68,2.96ZM73.46,229.77c.08-.89.08-1.51.02-1.85-.07-.34-.2-.61-.39-.8-.11-.11-.26-.17-.45-.19-.29-.03-.54.1-.74.36-.37.47-.59,1.13-.67,1.99l-.03.29,2.26.2Z"/>
    <path class="cls-3" d="M87.2,236.3l-1.81-6.05c-.27-.91-.49-1.48-.64-1.7-.16-.22-.36-.38-.6-.49l.04-.31,4.12.49-.04.31c-.27-.02-.47,0-.59.09-.12.08-.19.19-.21.32-.03.21.06.64.27,1.29l.96,3.19,1.19-2.24c.43-.8.66-1.36.7-1.68.02-.2-.02-.38-.14-.51-.12-.14-.35-.23-.69-.29l.04-.31,2.6.31-.04.31c-.26,0-.48.07-.66.22s-.52.69-1.01,1.62l-2.9,5.48c-.73,1.37-1.25,2.2-1.56,2.5-.44.42-.94.59-1.52.52-.46-.06-.81-.23-1.07-.53-.25-.3-.36-.63-.31-1,.04-.32.17-.57.39-.76.22-.19.48-.26.76-.23.28.03.49.15.64.35.15.2.2.48.16.85-.02.21-.01.35.03.42s.1.1.18.11c.13.02.28-.05.45-.19.25-.2.57-.71.97-1.5l.32-.62Z"/>
    <path class="cls-3" d="M98.6,229.36c.67.1,1.27.36,1.8.79.53.43.9.99,1.11,1.67.21.68.26,1.4.15,2.16-.16,1.1-.56,1.98-1.23,2.63-.8.8-1.79,1.11-2.98.94-1.16-.17-2-.7-2.51-1.61-.51-.9-.69-1.9-.54-2.97.16-1.11.62-2.03,1.38-2.76.76-.73,1.7-1.02,2.82-.86ZM98.55,229.95c-.28-.04-.54.03-.77.22-.23.18-.42.58-.58,1.2-.15.62-.31,1.48-.47,2.59-.08.59-.12,1.15-.12,1.67,0,.4.09.72.26.95.17.23.38.37.63.4.25.04.46,0,.65-.12.24-.16.42-.4.54-.72.18-.51.39-1.56.62-3.15.13-.94.17-1.59.12-1.95-.06-.37-.17-.64-.35-.83-.13-.14-.31-.22-.54-.25Z"/>
    <path class="cls-3" d="M112.64,231.8l-1,6.03c-.1.59-.1.96-.02,1.13.09.16.29.29.62.39l-.05.3-3.14-.52.17-1.03c-.44.38-.86.64-1.26.78-.4.14-.83.17-1.29.1-.43-.07-.8-.27-1.09-.59-.29-.32-.47-.67-.52-1.05-.06-.38-.01-1.01.14-1.9l.51-3.06c.1-.58.1-.95.02-1.11s-.29-.29-.62-.39l.05-.31,3.14.52-.87,5.26c-.09.55-.12.91-.1,1.08s.09.3.19.4c.1.1.22.16.37.19.2.03.38.01.56-.07.24-.11.55-.35.93-.73l.68-4.12c.1-.58.1-.95.02-1.11-.08-.16-.29-.29-.62-.39l.05-.3,3.14.52Z"/>
    <path class="cls-3" d="M119.58,233.07l-.33,1.74c.66-.7,1.2-1.14,1.64-1.33.43-.19.83-.25,1.18-.18.31.06.53.2.68.42.15.22.19.51.12.85-.07.37-.21.63-.43.8s-.45.23-.7.18c-.29-.06-.52-.2-.7-.42s-.28-.35-.32-.38c-.05-.04-.11-.07-.18-.09-.16-.03-.32,0-.49.1-.26.14-.48.38-.66.7-.28.5-.47,1.07-.59,1.71l-.33,1.76-.08.46c-.06.31-.08.51-.06.61.04.16.11.29.23.38.12.09.32.18.63.25l-.06.3-4.14-.78.06-.3c.34.04.58-.01.73-.15s.28-.53.41-1.2l.8-4.24c.08-.44.11-.72.09-.85-.03-.16-.08-.29-.17-.38-.09-.09-.26-.17-.52-.25l.06-.3,3.13.59Z"/>
    <path class="cls-3" d="M135.02,232.68l-.96,4.19c.79-.52,1.57-.69,2.33-.51.52.12.98.38,1.37.8.39.41.65.93.78,1.55.13.62.11,1.3-.05,2.04-.19.83-.53,1.55-1.01,2.15-.49.6-1.05,1.02-1.68,1.25-.63.23-1.31.26-2.02.1-.41-.09-.76-.24-1.05-.45s-.56-.49-.8-.85l-1.45.53-.28-.06,2.21-9.68c.1-.44.14-.72.13-.83-.02-.16-.08-.3-.18-.4-.1-.1-.29-.19-.56-.26l.07-.3,3.16.72ZM133.9,237.6l-.77,3.39c-.16.69-.24,1.13-.25,1.33-.02.33.05.62.21.87.16.25.4.4.72.48.28.06.53.04.77-.07.23-.11.47-.39.71-.82.24-.44.5-1.26.77-2.48.27-1.17.3-2,.11-2.5-.14-.36-.39-.59-.75-.67-.47-.11-.97.06-1.52.48Z"/>
    <path class="cls-3" d="M146,238.69c.66.17,1.23.49,1.71.98.48.48.79,1.08.92,1.78.13.7.11,1.42-.08,2.17-.27,1.07-.78,1.9-1.51,2.49-.88.71-1.9.91-3.06.61-1.14-.29-1.91-.91-2.32-1.87-.41-.96-.48-1.96-.21-3.01.28-1.08.83-1.95,1.67-2.59.83-.65,1.8-.83,2.89-.55ZM145.88,239.27c-.28-.07-.54-.03-.79.13-.25.16-.48.53-.7,1.13s-.47,1.44-.75,2.53c-.15.58-.25,1.13-.3,1.65-.04.4.01.72.16.97.14.25.34.41.59.47.24.06.46.05.66-.05.26-.13.46-.35.62-.66.24-.48.56-1.51.96-3.07.23-.92.34-1.56.33-1.93-.01-.37-.1-.66-.26-.86-.11-.15-.28-.25-.51-.31Z"/>
    <path class="cls-3" d="M156.15,238.7l-.76,2.75,1.79.49-.22.8-1.79-.49-1.28,4.64c-.12.43-.18.72-.17.86,0,.14.05.26.13.37s.16.17.25.19c.35.1.75-.08,1.21-.52l.19.24c-.72.91-1.57,1.23-2.54.96-.48-.13-.84-.38-1.1-.73-.26-.36-.39-.71-.39-1.06,0-.2.11-.7.33-1.5l1.12-4.06-.98-.27.08-.28c.81-.29,1.52-.63,2.14-1.03.62-.39,1.2-.87,1.73-1.42l.27.07Z"/>
    <path class="cls-3" d="M163.24,240.67l-.75,2.76,1.79.48-.22.8-1.79-.48-1.26,4.65c-.12.44-.17.72-.17.86,0,.14.05.26.13.36.08.11.16.17.25.19.35.09.75-.08,1.21-.53l.19.24c-.72.91-1.56,1.24-2.54.97-.48-.13-.85-.37-1.1-.73-.26-.36-.39-.71-.39-1.06,0-.2.1-.7.32-1.51l1.1-4.07-.98-.27.08-.28c.81-.29,1.52-.64,2.14-1.04.62-.4,1.19-.87,1.72-1.43l.27.07Z"/>
    <path class="cls-3" d="M170.12,245.17c.66.17,1.23.49,1.71.97s.79,1.08.92,1.78c.14.7.11,1.42-.08,2.17-.27,1.07-.77,1.9-1.5,2.49-.88.71-1.9.92-3.06.62-1.14-.29-1.91-.91-2.33-1.86-.41-.95-.49-1.96-.22-3.01.27-1.08.83-1.95,1.66-2.6.83-.65,1.8-.83,2.89-.56ZM170,245.75c-.28-.07-.54-.03-.79.13-.25.16-.48.54-.7,1.13-.22.6-.46,1.44-.74,2.53-.15.58-.24,1.13-.3,1.65-.04.4.02.72.16.97.14.25.34.4.59.47.24.06.46.05.66-.05.26-.13.46-.35.62-.66.24-.49.55-1.51.95-3.07.23-.92.34-1.56.32-1.93-.02-.37-.1-.66-.26-.86-.11-.15-.28-.25-.51-.31Z"/>
    <path class="cls-3" d="M179.36,247.67l-.23,1c.52-.36.98-.59,1.38-.7.4-.1.81-.11,1.23,0,.49.11.87.32,1.15.62.28.3.46.71.53,1.22.54-.39,1.04-.65,1.49-.78.45-.13.89-.14,1.32-.04.53.12.92.33,1.18.65.26.31.41.67.44,1.07.04.4-.03,1.01-.22,1.82l-.7,3.12c-.13.59-.16.96-.09,1.13s.27.31.6.43l-.07.29-3.94-.89.07-.29c.32.04.57-.03.77-.2.13-.12.26-.45.37-.98l.74-3.28c.15-.68.22-1.12.21-1.31-.01-.2-.07-.35-.16-.47-.1-.12-.22-.19-.38-.23-.23-.05-.49-.02-.77.1-.28.12-.58.32-.9.61l-.92,4.09c-.12.55-.15.9-.09,1.07.08.23.29.39.64.5l-.07.29-3.94-.89.07-.29c.21.04.39.02.54-.05.14-.07.25-.16.32-.29.07-.12.16-.41.26-.85l.74-3.28c.16-.69.22-1.13.21-1.31-.02-.19-.08-.34-.18-.47-.11-.13-.23-.21-.38-.24-.22-.05-.43-.04-.63.04-.29.11-.63.34-1.01.68l-.92,4.09c-.12.54-.15.9-.08,1.1.07.19.27.35.6.46l-.07.29-3.93-.88.07-.29c.33.04.58-.01.75-.16.12-.1.24-.44.38-1.03l.97-4.3c.13-.58.16-.95.08-1.11-.07-.16-.27-.31-.6-.43l.07-.3,3.1.7Z"/>
    <path class="cls-3" d="M199.62,248.32l-1.72,8.82c-.12.6-.17.95-.16,1.07,0,.19.07.34.17.45.11.11.31.21.61.29l-.05.27h-3.36s.24-1.21.24-1.21c-.48.39-.89.65-1.22.76-.34.11-.7.13-1.08.05-.98-.19-1.67-.78-2.06-1.76-.32-.8-.38-1.72-.18-2.75.16-.83.45-1.54.86-2.13.41-.6.9-1.02,1.46-1.25.56-.24,1.12-.3,1.69-.19.37.07.68.21.93.4.26.2.51.51.76.92l.45-2.31c.11-.59.16-.94.13-1.07-.03-.17-.11-.31-.23-.41-.12-.1-.35-.19-.72-.26l.07-.34,3.4.66ZM196.31,253.08c-.25-.85-.67-1.34-1.26-1.45-.2-.04-.38-.02-.53.07-.24.13-.46.4-.67.8-.21.4-.4,1.04-.57,1.92-.19.97-.26,1.7-.2,2.19.05.49.18.87.39,1.12.11.13.27.21.49.26.48.09,1.01-.2,1.58-.87l.79-4.03Z"/>
    <path class="cls-3" d="M208.2,257.07l-4.22-.72c-.12,1.03,0,1.88.4,2.56.3.52.72.83,1.25.92.33.06.64.02.94-.12.3-.14.64-.42,1.03-.85l.25.23c-.56.78-1.13,1.3-1.69,1.57-.57.27-1.18.35-1.84.23-1.14-.19-1.93-.78-2.37-1.76-.35-.79-.44-1.71-.26-2.76.22-1.28.74-2.25,1.56-2.89.82-.64,1.7-.88,2.64-.72.78.13,1.4.57,1.87,1.31.46.74.61,1.74.44,3ZM206.27,256.17c.15-.88.21-1.5.17-1.84-.04-.35-.15-.62-.32-.83-.1-.12-.24-.19-.44-.23-.29-.05-.54.05-.77.3-.41.43-.68,1.07-.83,1.93l-.05.29,2.24.38Z"/>
    <path class="cls-3" d="M216.17,254.39l-.27,2.65-.28-.04c-.22-.83-.49-1.42-.81-1.76-.32-.34-.66-.54-1.01-.59-.23-.03-.43.01-.61.14-.18.13-.29.29-.32.49-.02.15.01.3.1.45.14.25.58.71,1.31,1.38.73.67,1.19,1.21,1.39,1.63.2.42.26.87.19,1.34-.06.43-.23.83-.51,1.22-.28.38-.63.65-1.05.81-.42.16-.87.21-1.35.14-.37-.06-.84-.24-1.43-.57-.16-.09-.26-.13-.32-.14-.18-.03-.35.09-.52.35l-.27-.04.28-2.8.28.04c.14.76.4,1.36.78,1.79.38.43.76.67,1.15.73.26.04.49,0,.69-.15.19-.14.31-.32.34-.55.04-.26,0-.51-.15-.72-.14-.22-.46-.56-.98-1.04-.76-.71-1.23-1.24-1.44-1.58-.3-.51-.4-1.03-.32-1.58.09-.59.37-1.1.86-1.52.48-.42,1.11-.57,1.89-.46.42.06.81.22,1.17.49.14.11.25.16.34.18.1.02.18,0,.25-.03.07-.03.18-.14.34-.31l.28.04Z"/>
    <path class="cls-3" d="M225.42,259.48l-4.25-.53c-.08,1.03.09,1.88.51,2.54.32.51.75.79,1.29.86.33.04.64-.01.94-.16s.63-.45,1-.89l.26.22c-.53.8-1.07,1.35-1.62,1.64-.55.29-1.16.4-1.83.31-1.15-.14-1.96-.7-2.44-1.65-.39-.77-.51-1.69-.38-2.74.16-1.29.64-2.28,1.44-2.96.8-.68,1.66-.96,2.6-.84.78.1,1.42.51,1.92,1.22.5.72.69,1.71.57,2.98ZM223.46,258.67c.11-.89.14-1.51.09-1.85-.06-.34-.17-.61-.36-.81-.1-.11-.25-.18-.45-.21-.29-.04-.54.08-.76.33-.39.45-.64,1.1-.74,1.96l-.04.29,2.25.28Z"/>
    <path class="cls-3" d="M231.53,256.48l-.18,1.76c.6-.75,1.1-1.24,1.51-1.46.41-.22.8-.32,1.16-.28.31.03.55.15.71.36.17.21.23.49.2.84-.04.37-.16.65-.36.84-.2.19-.43.27-.68.24-.29-.03-.54-.15-.74-.36-.2-.21-.31-.33-.35-.35-.05-.04-.11-.06-.19-.07-.16-.02-.32.03-.48.14-.25.17-.44.42-.6.75-.23.52-.38,1.1-.44,1.75l-.18,1.79-.04.47c-.03.32-.03.52,0,.61.05.16.14.28.26.36.12.08.34.15.65.19l-.03.3-4.2-.42.03-.3c.34,0,.58-.06.71-.21.13-.15.24-.56.3-1.23l.43-4.3c.04-.44.05-.73.02-.85-.04-.16-.11-.28-.21-.36-.1-.08-.28-.15-.54-.21l.03-.31,3.17.32Z"/>
    <path class="cls-3" d="M240.23,265.3l-2.2-6.23c-.26-.75-.48-1.23-.64-1.44-.12-.15-.3-.26-.55-.33l.02-.31,4.14.29-.02.31c-.26-.02-.44.02-.54.1-.14.11-.22.25-.23.42-.01.21.08.6.28,1.18l1.08,3.02,1.2-2.45c.35-.7.53-1.2.55-1.5.01-.17-.04-.32-.16-.43-.12-.12-.33-.19-.65-.23l.02-.31,2.55.18-.02.31c-.25.02-.45.09-.62.23-.17.14-.43.56-.79,1.27l-3.03,5.93-.39-.03Z"/>
    <path class="cls-3" d="M253.67,261.57l-4.28-.17c0,1.04.25,1.87.73,2.49.37.48.82.73,1.36.75.33.01.64-.07.92-.24.28-.18.59-.5.92-.97l.28.19c-.46.85-.95,1.44-1.47,1.78-.53.34-1.13.49-1.8.47-1.16-.05-2.02-.53-2.58-1.44-.45-.74-.65-1.64-.61-2.7.05-1.3.44-2.32,1.18-3.07.73-.74,1.57-1.1,2.52-1.06.79.03,1.46.38,2.02,1.05s.83,1.64.82,2.92ZM251.64,260.93c.04-.9.01-1.51-.07-1.85-.08-.34-.23-.6-.42-.78-.11-.1-.27-.16-.46-.17-.29-.01-.53.12-.73.4-.35.48-.54,1.15-.57,2.02v.29s2.26.09,2.26.09Z"/>
    <path class="cls-3" d="M261.24,257.82l.1,2.67h-.28c-.33-.8-.68-1.34-1.04-1.63-.36-.29-.72-.44-1.09-.44-.23,0-.42.07-.59.23-.16.15-.24.33-.25.53,0,.15.05.3.16.44.18.23.67.62,1.49,1.19s1.35,1.04,1.6,1.42c.26.39.38.82.38,1.3,0,.43-.12.86-.34,1.27-.22.42-.53.73-.93.95-.4.22-.84.33-1.31.32-.37,0-.87-.12-1.49-.36-.17-.06-.28-.09-.34-.09-.18,0-.34.14-.46.41h-.28s-.11-2.81-.11-2.81h.28c.24.74.58,1.29,1.02,1.66.43.37.85.56,1.24.56.27,0,.49-.08.66-.24.17-.16.26-.36.26-.6,0-.27-.08-.5-.24-.69-.16-.2-.54-.49-1.11-.89-.85-.6-1.39-1.05-1.64-1.37-.36-.46-.54-.97-.54-1.52,0-.6.22-1.14.64-1.63.42-.48,1.02-.72,1.81-.72.42,0,.83.11,1.22.32.15.08.27.13.37.13.1,0,.18-.02.24-.06s.16-.16.3-.35h.28Z"/>
    <path class="cls-3" d="M273.45,254.2l.25,4.29c.62-.72,1.31-1.1,2.09-1.14.53-.03,1.05.1,1.54.38s.89.71,1.19,1.27c.3.56.47,1.22.52,1.98.05.85-.07,1.63-.37,2.35-.3.71-.72,1.27-1.27,1.67-.55.4-1.18.62-1.91.66-.42.03-.8-.02-1.14-.13-.34-.11-.67-.31-1-.59l-1.24.92-.28.02-.58-9.91c-.03-.45-.06-.73-.11-.83-.07-.15-.16-.26-.28-.33-.12-.07-.33-.1-.61-.09l-.02-.31,3.23-.19ZM273.75,259.23l.2,3.47c.04.71.08,1.15.13,1.35.07.32.22.58.45.77.22.19.5.28.83.26.28-.02.52-.11.72-.28s.34-.5.45-.99c.11-.49.13-1.35.05-2.6-.07-1.19-.27-2.01-.59-2.43-.24-.31-.54-.45-.9-.43-.48.03-.92.32-1.33.89Z"/>
    <path class="cls-3" d="M288.78,260.01l-4.26.47c.16,1.02.53,1.81,1.09,2.35.43.42.92.6,1.45.54.33-.04.62-.16.87-.38.25-.22.5-.58.76-1.1l.3.15c-.32.9-.72,1.56-1.19,1.98s-1.04.66-1.71.73c-1.15.13-2.07-.22-2.76-1.04-.56-.66-.89-1.52-1.01-2.58-.14-1.29.09-2.36.71-3.21.61-.84,1.39-1.32,2.33-1.42.79-.09,1.5.16,2.15.74.65.58,1.07,1.5,1.25,2.76ZM286.68,259.68c-.1-.89-.22-1.5-.35-1.82-.13-.32-.31-.56-.54-.7-.13-.09-.29-.12-.48-.1-.29.03-.51.2-.66.5-.27.53-.36,1.22-.26,2.08l.03.29,2.26-.25Z"/>
    <path class="cls-3" d="M293.63,252.71l.46,2.82,1.83-.3.13.82-1.83.3.77,4.76c.07.45.14.73.2.85.06.12.15.22.27.28.12.06.22.09.31.07.36-.06.65-.38.88-.98l.28.14c-.27,1.13-.91,1.77-1.91,1.93-.49.08-.93,0-1.31-.21-.38-.22-.65-.49-.79-.81-.09-.18-.19-.68-.33-1.5l-.67-4.16-1.01.16-.05-.29c.61-.6,1.12-1.21,1.52-1.83.4-.62.73-1.29.98-2.01l.27-.04Z"/>
    <path class="cls-3" d="M300.74,251.33l.6,2.79,1.81-.39.17.81-1.81.39,1.01,4.71c.09.44.18.72.24.84.07.12.16.21.28.26.12.06.22.08.31.06.35-.08.63-.42.83-1.02l.28.13c-.22,1.14-.82,1.82-1.81,2.03-.48.1-.92.06-1.32-.14-.39-.2-.67-.45-.83-.76-.09-.17-.23-.67-.4-1.49l-.88-4.12-1,.21-.06-.29c.58-.63,1.06-1.27,1.42-1.9.37-.64.66-1.32.88-2.06l.27-.06Z"/>
    <path class="cls-3" d="M312.87,254.84l-4.12,1.18c.33.98.82,1.69,1.47,2.13.5.34,1,.43,1.52.29.32-.09.59-.27.8-.52s.4-.66.57-1.21l.32.1c-.17.95-.45,1.66-.85,2.15-.39.49-.91.82-1.56,1.01-1.11.32-2.08.13-2.9-.56-.66-.56-1.13-1.35-1.43-2.37-.36-1.25-.3-2.35.16-3.28.47-.93,1.15-1.53,2.06-1.79.76-.22,1.51-.09,2.25.37.74.46,1.3,1.3,1.7,2.52ZM310.74,254.87c-.25-.86-.46-1.44-.65-1.73-.19-.3-.4-.5-.65-.61-.14-.06-.3-.07-.49-.02-.28.08-.47.28-.57.6-.18.57-.15,1.26.09,2.09l.08.28,2.18-.62Z"/>
    <path class="cls-3" d="M317.39,249.35l.64,1.65c.19-.94.42-1.6.69-1.99.27-.39.57-.65.91-.78.29-.11.56-.11.8,0,.24.11.43.33.56.66.14.35.16.65.06.91s-.26.43-.5.52c-.28.11-.55.11-.82.01-.27-.1-.43-.15-.47-.16-.06-.01-.13,0-.2.02-.15.06-.27.17-.36.34-.14.26-.21.57-.19.94.03.57.16,1.16.4,1.76l.65,1.67.18.43c.11.3.21.48.28.55.12.12.25.18.4.2.15.02.37-.02.67-.12l.11.28-3.93,1.53-.11-.28c.31-.15.49-.32.54-.51.05-.19-.04-.6-.29-1.24l-1.56-4.02c-.16-.42-.28-.67-.37-.77-.11-.13-.22-.2-.35-.23-.13-.03-.32,0-.58.06l-.11-.29,2.97-1.16Z"/>
    <path class="cls-3" d="M325.16,251.7c.35-.17.71-.19,1.07-.06.36.13.62.37.79.72.17.35.18.7.05,1.06-.13.36-.37.62-.72.79s-.7.18-1.06.06c-.36-.13-.62-.37-.79-.71-.17-.35-.18-.7-.06-1.06.13-.36.36-.63.71-.79Z"/>
  </g>
</svg>