<svg width="16" height="16" viewBox="0 0 16 16" fill="none" xmlns="http://www.w3.org/2000/svg">
<path d="M9.06055 10.5928C10.2801 10.5928 11.0777 9.98589 11.082 9.04492C11.0868 7.85086 9.44403 7.78468 9.45508 7.25098C9.45896 7.08915 9.6125 6.91601 9.94824 6.87207C10.1147 6.84991 10.5731 6.83392 11.0928 7.0752L11.2969 6.11523C11.0173 6.01259 10.6574 5.91406 10.21 5.91406C9.06226 5.91419 8.2555 6.52975 8.24902 7.41016C8.24085 8.06172 8.82451 8.42539 9.26465 8.6416C9.71685 8.86344 9.86888 9.00576 9.86719 9.2041C9.86374 9.50775 9.50632 9.64224 9.17188 9.64746C8.58854 9.65656 8.24918 9.48834 7.97949 9.36133L7.76953 10.3525C8.04008 10.4782 8.54103 10.588 9.06055 10.5928ZM6.27246 5.99707H5.05371L3.84473 9.07715L3.35547 6.45801C3.29801 6.16593 3.07172 5.99719 2.82031 5.99707H0.84375L0.816406 6.12891C1.22198 6.21764 1.68272 6.36057 1.96191 6.51367C2.1328 6.6072 2.18218 6.68883 2.23828 6.91113L3.16406 10.5225H4.3916L6.27246 5.99707ZM7.93164 5.99707H6.77148L5.81055 10.5225H6.97168L7.93164 5.99707ZM12.4834 9.84668H13.9727L14.1133 10.5225H15.1875L14.25 5.99707H13.2588C13.0361 5.99707 12.8484 6.12812 12.7646 6.3291L11.0225 10.5225H12.2412L12.4834 9.84668ZM13.4287 7.21973L13.7803 8.91895H12.8174L13.4287 7.21973Z" fill="url(#paint0_linear_157_719)"/>
<defs>
<linearGradient id="paint0_linear_157_719" x1="0.841455" y1="7.35311" x2="4.90408" y2="1.632" gradientUnits="userSpaceOnUse">
<stop stop-color="#222357"/>
<stop offset="1" stop-color="#254AA5"/>
</linearGradient>
</defs>
</svg>
